<svg width="24" height="22" viewBox="0 0 24 22" fill="none" xmlns="http://www.w3.org/2000/svg">
<path d="M15.2695 18.3008C14.8037 18.3008 14.4961 17.9844 14.4961 17.5273C14.4961 17.2988 14.5664 17.1318 14.707 16.9912L17.2383 14.5215L18.9082 13.0977L16.8428 13.1855H5.62793C3.58008 13.1855 2.72754 12.2451 2.72754 10.2588V5.06445C2.72754 3.0166 3.58008 2.16406 5.62793 2.16406H10.5498C11.0332 2.16406 11.3496 2.51562 11.3496 2.94629C11.3496 3.37695 11.0332 3.72852 10.5498 3.72852H5.62793C4.69629 3.72852 4.29199 4.13281 4.29199 5.06445V10.2588C4.29199 11.2168 4.69629 11.6211 5.62793 11.6211H16.8428L18.9082 11.709L17.2383 10.2852L14.707 7.81543C14.5664 7.6748 14.4961 7.49902 14.4961 7.27051C14.4961 6.82227 14.8037 6.49707 15.2695 6.49707C15.4629 6.49707 15.6914 6.59375 15.8408 6.74316L21.0088 11.8145C21.1846 11.9814 21.2725 12.1836 21.2725 12.4033C21.2725 12.6143 21.1846 12.8252 21.0088 12.9922L15.8408 18.0635C15.6914 18.2129 15.4629 18.3008 15.2695 18.3008Z" fill="black"/>
</svg>
