<svg xmlns="http://www.w3.org/2000/svg" width="17" height="14" viewBox="0 0 17 14" fill="none">
  <path d="M0 6.9082C0 6.5918 0.117188 6.32227 0.351562 6.09961L6.09961 0.351562C6.22266 0.228516 6.34863 0.140625 6.47754 0.0878906C6.6123 0.0292969 6.74707 0 6.88184 0C7.2041 0 7.46484 0.0996094 7.66406 0.298828C7.86328 0.498047 7.96289 0.744141 7.96289 1.03711C7.96289 1.19531 7.93066 1.3418 7.86621 1.47656C7.80762 1.60547 7.72852 1.71973 7.62891 1.81934L5.66016 3.80566L2.54004 6.6709L2.13574 5.99414L5.33496 5.81836H15.7061C16.04 5.81836 16.3096 5.9209 16.5146 6.12598C16.7197 6.3252 16.8223 6.58594 16.8223 6.9082C16.8223 7.23633 16.7197 7.50293 16.5146 7.70801C16.3096 7.90723 16.04 8.00684 15.7061 8.00684H5.33496L2.13574 7.82227L2.54004 7.16309L5.66016 10.0107L7.62891 11.9971C7.72852 12.0967 7.80762 12.2109 7.86621 12.3398C7.93066 12.4688 7.96289 12.6152 7.96289 12.7793C7.96289 13.0723 7.86328 13.3184 7.66406 13.5176C7.46484 13.7168 7.2041 13.8164 6.88184 13.8164C6.60059 13.8164 6.3457 13.7021 6.11719 13.4736L0.351562 7.7168C0.117188 7.49414 0 7.22461 0 6.9082Z" fill="white"/>
</svg>