<svg width="24" height="24" viewBox="0 0 24 24" fill="none" xmlns="http://www.w3.org/2000/svg">
<path d="M9.2002 20.6396V14.2939C9.2002 14.0889 9.26172 13.9248 9.38477 13.8018C9.51367 13.6787 9.68066 13.6172 9.88574 13.6172H13.5771C13.7822 13.6172 13.9463 13.6787 14.0693 13.8018C14.1924 13.9248 14.2539 14.0889 14.2539 14.2939V20.6396H9.2002ZM5.76367 21.7822C5.0957 21.7822 4.57422 21.6006 4.19922 21.2373C3.82422 20.874 3.63672 20.3701 3.63672 19.7256V9.97852L5.36816 8.80078V19.1895C5.36816 19.4707 5.44141 19.6846 5.58789 19.8311C5.73438 19.9834 5.94531 20.0596 6.2207 20.0596H17.1982C17.4736 20.0596 17.6816 19.9834 17.8223 19.8311C17.9688 19.6846 18.042 19.4707 18.042 19.1895V8.80078L19.7646 9.97852V19.7256C19.7646 20.3701 19.5801 20.874 19.2109 21.2373C18.8418 21.6006 18.3232 21.7822 17.6553 21.7822H5.76367ZM1 11.8594C1 11.584 1.11426 11.3525 1.34277 11.165L10.501 3.47461C10.8818 3.1582 11.2949 3 11.7402 3C12.1855 3 12.5957 3.1582 12.9707 3.47461L22.1201 11.165C22.3486 11.3525 22.4629 11.5928 22.4629 11.8857C22.4629 12.1377 22.375 12.3369 22.1992 12.4834C22.0293 12.6299 21.8184 12.7031 21.5664 12.7031C21.4316 12.7031 21.3027 12.6709 21.1797 12.6064C21.0566 12.542 20.9424 12.4688 20.8369 12.3867L12.1182 5.06543C11.9951 4.95996 11.8691 4.90723 11.7402 4.90723C11.6113 4.90723 11.4854 4.95996 11.3623 5.06543L2.63477 12.3867C2.52344 12.4688 2.40625 12.542 2.2832 12.6064C2.16602 12.6709 2.04004 12.7031 1.90527 12.7031C1.62402 12.7031 1.40137 12.6211 1.2373 12.457C1.0791 12.2871 1 12.0879 1 11.8594ZM17.2773 7.59668V5.44336C17.2773 5.25 17.3359 5.09473 17.4531 4.97754C17.5762 4.85449 17.7344 4.79297 17.9277 4.79297H19.123C19.3164 4.79297 19.4717 4.85449 19.5889 4.97754C19.7061 5.09473 19.7646 5.25 19.7646 5.44336V9.68848L17.2773 7.59668Z" fill="#191B1E"/>
</svg>
