<svg xmlns="http://www.w3.org/2000/svg" width="24" height="24" viewBox="0 0 24 24" fill="none">
  <path d="M21.7099 0V19.6984L4.15082 21.6145L2 21.8492V2.15082C2 1.55686 2.24047 1.01892 2.62972 0.629673C3.01897 0.240422 3.55686 0 4.15082 0H21.7099Z" fill="#665E66"/>
  <path d="M4.15082 0V21.6145L2 21.8492V2.15082C2 1.55686 2.24047 1.01892 2.62972 0.629673C3.01897 0.240422 3.55686 0 4.15082 0Z" fill="#454045"/>
  <path d="M21.7101 19.6986H4.15077C2.96295 19.6986 2.00005 20.6615 2.00005 21.8493C2.00005 23.0371 2.96295 24 4.15077 24H21.7101V22.7927L20.6687 21.8492L21.7101 20.9057V19.6986Z" fill="#454045"/>
  <path d="M4.15077 22.7928C3.6305 22.7928 3.20727 22.3696 3.20727 21.8493C3.20727 21.329 3.6305 20.9058 4.15077 20.9058H21.7101V22.7928H4.15077Z" fill="#DFEAEF"/>
  <path d="M17.8752 15.3912H7.81157C6.90009 15.3912 6.16124 14.6523 6.16124 13.7408V5.05342C6.16124 4.14193 6.90013 3.40309 7.81157 3.40309H17.8752C18.7867 3.40309 19.5255 4.14198 19.5255 5.05342V13.7408C19.5255 14.6523 18.7866 15.3912 17.8752 15.3912Z" fill="#DFEAEF"/>
  <path d="M17.8752 15.7533H7.81158C6.70185 15.7533 5.79904 14.8505 5.79904 13.7408V5.05341C5.79904 3.94369 6.70185 3.04088 7.81158 3.04088H17.8752C18.9849 3.04088 19.8877 3.94369 19.8877 5.05341V13.7408C19.8877 14.8505 18.9849 15.7533 17.8752 15.7533ZM7.81158 3.76524C7.10128 3.76524 6.5234 4.34312 6.5234 5.05341V13.7408C6.5234 14.4511 7.10128 15.029 7.81158 15.029H17.8752C18.5855 15.029 19.1634 14.4511 19.1634 13.7408V5.05341C19.1634 4.34312 18.5855 3.76524 17.8752 3.76524H7.81158Z" fill="#454045"/>
  <path d="M17.8752 17.5849H7.81158C7.61156 17.5849 7.44942 17.4227 7.44942 17.2227C7.44942 17.0227 7.61156 16.8605 7.81158 16.8605H17.8752C18.0753 16.8605 18.2373 17.0227 18.2373 17.2227C18.2373 17.4227 18.0752 17.5849 17.8752 17.5849Z" fill="#DFEAEF"/>
  <path d="M18.2721 11.6117H17.585V10.9247C17.585 10.7246 17.4228 10.5625 17.2228 10.5625C17.0228 10.5625 16.8607 10.7246 16.8607 10.9247V11.6117H16.1736C15.9736 11.6117 15.8115 11.7739 15.8115 11.9739C15.8115 12.1739 15.9736 12.336 16.1736 12.336H16.8607V13.0231C16.8607 13.2231 17.0228 13.3852 17.2228 13.3852C17.4228 13.3852 17.585 13.2231 17.585 13.0231V12.336H18.2721C18.4721 12.336 18.6342 12.1739 18.6342 11.9739C18.6342 11.7739 18.4721 11.6117 18.2721 11.6117Z" fill="#EAB14D"/>
  <path d="M8.89627 5.83703H8.53134V5.4721C8.53134 5.27209 8.3692 5.10995 8.16919 5.10995C7.96917 5.10995 7.80703 5.27209 7.80703 5.4721V5.83703H7.44215C7.24214 5.83703 7.08 5.99917 7.08 6.19918C7.08 6.3992 7.24214 6.56134 7.44215 6.56134H7.80703V6.92626C7.80703 7.12628 7.96917 7.28842 8.16919 7.28842C8.3692 7.28842 8.53134 7.12628 8.53134 6.92626V6.56134H8.89627C9.09628 6.56134 9.25842 6.3992 9.25842 6.19918C9.25842 5.99917 9.09628 5.83703 8.89627 5.83703Z" fill="#EAB14D"/>
  <path d="M11.6582 4.81904H11.2933V4.45417C11.2933 4.25415 11.1311 4.09201 10.9311 4.09201C10.7311 4.09201 10.569 4.25415 10.569 4.45417V4.81904H10.2041C10.0041 4.81904 9.84193 4.98118 9.84193 5.1812C9.84193 5.38122 10.0041 5.54336 10.2041 5.54336H10.569V5.90828C10.569 6.1083 10.7311 6.27044 10.9311 6.27044C11.1311 6.27044 11.2933 6.1083 11.2933 5.90828V5.54336H11.6582C11.8582 5.54336 12.0204 5.38122 12.0204 5.1812C12.0203 4.98123 11.8582 4.81904 11.6582 4.81904Z" fill="#EAB14D"/>
  <path d="M9.39314 13.4194C9.13439 13.4194 8.96981 13.3186 8.84672 13.1955C8.32401 12.6727 8.83481 11.7501 9.33815 11.0047C9.69778 10.4722 10.1245 9.95786 10.6063 9.47599L13.1635 6.91881C13.6459 6.43646 14.1604 6.00967 14.6928 5.65028C15.4381 5.14721 16.3603 4.63669 16.8829 5.15935C17.2299 5.50632 17.401 6.18456 15.6292 8.36777C15.1414 8.96842 14.5533 9.61605 13.9285 10.2408C13.3037 10.8657 12.656 11.4537 12.0558 11.9412C10.6465 13.085 9.86409 13.4194 9.39314 13.4194ZM11.3537 10.2232C10.9194 10.6575 10.536 11.1195 10.2141 11.5962C10.0477 11.8423 9.93356 12.0366 9.85514 12.1869C10.1796 12.0167 10.6815 11.6957 11.3898 11.1208C11.9622 10.6559 12.5818 10.0932 13.1814 9.49352C13.7809 8.89403 14.3438 8.27444 14.8089 7.70172C15.3834 6.99372 15.7043 6.49196 15.8744 6.16768C15.7242 6.24606 15.5302 6.36015 15.2842 6.52618C14.8076 6.84793 14.3455 7.23147 13.9109 7.66614L11.3537 10.2232Z" fill="#F4DD45"/>
  <path d="M12.8648 11.7929C14.3096 11.7929 15.4808 10.6217 15.4808 9.17697C15.4808 7.73224 14.3096 6.56106 12.8648 6.56106C11.4201 6.56106 10.2489 7.73224 10.2489 9.17697C10.2489 10.6217 11.4201 11.7929 12.8648 11.7929Z" fill="#DA4A54"/>
  <path d="M15.1964 10.3646C15.0753 10.6033 14.9144 10.827 14.7146 11.0267C13.6928 12.0485 12.0364 12.048 11.0151 11.0267C9.99332 10.0049 9.99332 8.34897 11.0151 7.32718C11.2149 7.1274 11.4386 6.96648 11.6772 6.84545C11.176 7.82786 11.3369 9.06086 12.1589 9.88286C12.9809 10.7049 14.214 10.8658 15.1964 10.3646Z" fill="#C32430"/>
  <path d="M15.2499 7.13307C15.1227 7.30562 14.9769 7.49457 14.8088 7.70171C14.3437 8.27448 13.7809 8.89408 13.1813 9.49352C12.5817 10.0932 11.9622 10.6559 11.3897 11.1208C11.2178 11.2603 11.0584 11.3846 10.9104 11.4956L11.7799 12.1611C11.8692 12.0913 11.961 12.0183 12.0559 11.9412C12.6561 11.4537 13.3037 10.8657 13.9286 10.2408C14.5534 9.61605 15.1415 8.96842 15.6293 8.36776C15.7664 8.19878 15.8906 8.03987 16.0053 7.88837L15.2499 7.13307Z" fill="#F4DD45"/>
</svg>