<svg width="24" height="24" viewBox="0 0 24 24" fill="none" xmlns="http://www.w3.org/2000/svg">
<g clip-path="url(#clip0_1043_3369)">
<path d="M22.997 7.29358V21.9797H1.00335V7.29358C1.00335 6.53931 1.61516 5.9275 2.36994 5.9275H21.6305C22.3852 5.9275 22.997 6.53931 22.997 7.29358Z" fill="#DFEAEF"/>
<path d="M1.00335 19.7985H22.997V21.9797H1.00335V19.7985Z" fill="#B4D0D5"/>
<path d="M21.3068 7.61753V18.9769H2.69353V7.61753H21.3068Z" fill="#6EC17D"/>
<path d="M24 20.667H0.000411987V21.4697C0.000411987 22.5669 0.889865 23.4564 1.98707 23.4564H22.0133C23.1105 23.4564 24 22.5669 24 21.4697V20.667Z" fill="#DFEAEF"/>
<path d="M13.3017 22.0617H10.6987C9.95105 22.0617 9.34491 21.4556 9.34491 20.7079V20.667H14.6555V20.7079C14.6555 21.4556 14.0494 22.0617 13.3017 22.0617Z" fill="#B4D0D5"/>
<path d="M4.15814 23.4564L1.98707 23.4564C0.88949 23.4564 0 22.5669 0 21.4698V20.6672H2.17106V21.4698C2.17106 22.5669 3.06056 23.4564 4.15814 23.4564Z" fill="#B4D0D5"/>
<path d="M17.3386 7.30567V9.34586C17.3386 10.5642 16.6108 11.6705 15.4852 12.1379C13.2572 13.0641 10.7432 13.0641 8.51518 12.1379C7.38957 11.6705 6.66184 10.5642 6.66184 9.34586V7.30567H17.3386Z" fill="#665E66"/>
<path d="M13.3994 12.7243C11.7615 12.9793 10.069 12.7842 8.515 12.1381C7.38939 11.6707 6.66165 10.5644 6.66165 9.34605V7.30586H9.46V9.34605C9.46 10.5644 10.1877 11.6707 11.3133 12.1381C11.9879 12.4187 12.6886 12.6142 13.3994 12.7243Z" fill="#454045"/>
<path d="M17.3386 7.30567L17.3386 8.12369L12.9689 10.4387C12.3629 10.7593 11.6376 10.7593 11.0316 10.4387L6.66193 8.12369V7.30567H17.3386Z" fill="#454045"/>
<path d="M19.972 3.95069L12.9688 0.240715C12.363 -0.0802383 11.6375 -0.0802383 11.0317 0.240715L4.0284 3.95069C3.24198 4.36726 3.24198 5.49391 4.0284 5.91048L11.0317 9.6205C11.6375 9.94145 12.3629 9.94145 12.9688 9.6205L19.972 5.91048C20.7585 5.49391 20.7585 4.36731 19.972 3.95069Z" fill="#665E66"/>
<path d="M15.1156 13.5871C14.9556 13.5871 14.8259 13.4573 14.8259 13.2973V8.59225L11.7824 5.12162C11.6769 5.00129 11.6889 4.81825 11.8092 4.71273C11.9294 4.60722 12.1126 4.61926 12.2181 4.73954L15.3335 8.29216C15.3798 8.34503 15.4054 8.41291 15.4054 8.48317V13.2973C15.4053 13.4574 15.2756 13.5871 15.1156 13.5871Z" fill="#EAB14D"/>
<path d="M14.7039 13.3633L14.1235 14.3685C13.7655 14.9886 14.213 15.7638 14.929 15.7638H15.3022C16.0182 15.7638 16.4657 14.9886 16.1077 14.3685L15.5274 13.3633C15.3444 13.0464 14.8869 13.0464 14.7039 13.3633Z" fill="#F4DD45"/>
<path d="M11.7476 17.6491H4.49718C4.29717 17.6491 4.13503 17.487 4.13503 17.287C4.13503 17.0869 4.29717 16.9248 4.49718 16.9248H11.7475C11.9475 16.9248 12.1097 17.0869 12.1097 17.287C12.1097 17.487 11.9476 17.6491 11.7476 17.6491Z" fill="#665E66"/>
<path d="M9.3449 16.1259H4.49718C4.29717 16.1259 4.13503 15.9638 4.13503 15.7638C4.13503 15.5637 4.29717 15.4016 4.49718 15.4016H9.3449C9.54492 15.4016 9.70706 15.5637 9.70706 15.7638C9.70706 15.9638 9.54492 16.1259 9.3449 16.1259Z" fill="#665E66"/>
</g>
<defs>
<clipPath id="clip0_1043_3369">
<rect width="24" height="24" fill="white"/>
</clipPath>
</defs>
</svg>
