<svg width="19" height="15" viewBox="0 0 19 15" fill="none" xmlns="http://www.w3.org/2000/svg">
<path d="M0.898438 2.875H17.6094V4.10938H0.898438V2.875ZM2.5625 14.5859C1.71875 14.5859 1.08073 14.3724 0.648438 13.9453C0.216146 13.5182 0 12.888 0 12.0547V2.53906C0 1.70573 0.216146 1.07552 0.648438 0.648438C1.08073 0.216146 1.71875 0 2.5625 0H15.9375C16.7865 0 17.4271 0.216146 17.8594 0.648438C18.2917 1.07552 18.5078 1.70573 18.5078 2.53906V12.0547C18.5078 12.888 18.2917 13.5182 17.8594 13.9453C17.4271 14.3724 16.7865 14.5859 15.9375 14.5859H2.5625ZM2.65625 13.0547H15.8516C16.2109 13.0547 16.487 12.9609 16.6797 12.7734C16.8724 12.5807 16.9688 12.2969 16.9688 11.9219V2.67188C16.9688 2.29688 16.8724 2.01562 16.6797 1.82812C16.487 1.63542 16.2109 1.53906 15.8516 1.53906H2.65625C2.29167 1.53906 2.01302 1.63542 1.82031 1.82812C1.63281 2.01562 1.53906 2.29688 1.53906 2.67188V11.9219C1.53906 12.2969 1.63281 12.5807 1.82031 12.7734C2.01302 12.9609 2.29167 13.0547 2.65625 13.0547ZM3.50781 11.1797V10.0469C3.50781 9.83333 3.57292 9.66146 3.70312 9.53125C3.83854 9.39583 4.01823 9.32812 4.24219 9.32812H14.2891C14.5078 9.32812 14.6849 9.39583 14.8203 9.53125C14.9557 9.66146 15.0234 9.83333 15.0234 10.0469V11.1797C15.0234 11.3932 14.9557 11.5677 14.8203 11.7031C14.6849 11.8333 14.5078 11.8984 14.2891 11.8984H4.24219C4.01823 11.8984 3.83854 11.8333 3.70312 11.7031C3.57292 11.5677 3.50781 11.3932 3.50781 11.1797Z" fill="white"/>
</svg>
