<svg xmlns="http://www.w3.org/2000/svg" width="24" height="24" viewBox="0 0 24 24" fill="none">
  <g clip-path="url(#clip0_431_1550)">
    <path d="M14.0362 19.1189L12.0633 18.112L10.0904 19.1189L8.72808 22.3283L12 23.1641L15.3986 22.3283L14.0362 19.1189Z" fill="#454045"/>
    <path d="M21.8947 19.1189H2.1053C0.942562 19.1189 0 18.1763 0 17.0136V2.1053C0 0.942562 0.942562 0 2.1053 0H21.8947C23.0574 0 24 0.942562 24 2.1053V17.0136C24 18.1763 23.0574 19.1189 21.8947 19.1189Z" fill="#665E66"/>
    <path d="M3.30108 19.119H2.10544C0.942609 19.119 0 18.1764 0 17.0136V2.10558C0 0.942752 0.942609 0.000143051 2.10544 0.000143051H3.30108C2.13825 0.000143051 1.19564 0.942752 1.19564 2.10558V17.0136C1.19564 18.1764 2.13825 19.119 3.30108 19.119Z" fill="#454045"/>
    <path d="M2.1053 17.4287C1.87641 17.4287 1.69013 17.2425 1.69013 17.0136V2.1053C1.69013 1.87636 1.87636 1.69013 2.1053 1.69013H21.8947C22.1236 1.69013 22.3099 1.87636 22.3099 2.1053V17.0136C22.3099 17.2425 22.1236 17.4287 21.8947 17.4287H2.1053Z" fill="#DFEAEF"/>
    <path d="M17.5652 22.3283H6.43481C5.51156 22.3283 4.76311 23.0767 4.76311 24H19.2369C19.2369 23.0767 18.4884 22.3283 17.5652 22.3283Z" fill="#665E66"/>
    <path d="M9.29752 22.3282C8.37422 22.3282 7.62572 23.0767 7.62572 24L4.76311 24C4.76311 23.0767 5.51161 22.3282 6.43444 22.3282H9.29752Z" fill="#454045"/>
    <path d="M10.3196 14.169C9.57422 14.8783 8.64408 15.3659 7.63575 15.5697C6.93474 15.7114 6.23063 15.7831 6.01243 15.5656C5.7946 15.3485 5.86322 14.644 6.00253 13.9427C6.2033 12.9333 6.68715 12.0015 7.39397 11.2537C9.56499 8.95706 11.7896 6.71329 14.0675 4.52282C14.0678 4.5225 14.0678 4.5225 14.0678 4.5225C14.2518 4.34461 14.4369 4.1677 14.622 3.99084C15.4292 3.2205 16.7093 3.22153 17.5029 4.00622L17.5313 4.03453C18.319 4.82503 18.3245 6.10547 17.5569 6.91542C17.3722 7.11037 17.1874 7.30467 17.0017 7.49864C14.8272 9.77479 12.5995 11.9984 10.3196 14.169Z" fill="#80B4FB"/>
    <path d="M6.01247 15.5654C5.79446 15.3481 5.86355 14.644 6.00267 13.9427C6.20325 12.9336 6.68719 12.0016 7.39388 11.2537C9.741 8.7705 12.1502 6.34987 14.6219 3.99075C15.4291 3.22083 16.7095 3.22148 17.5028 4.00608L17.5115 4.0148C17.1989 3.70912 16.3089 4.09748 15.5141 4.87978C13.0793 7.27566 10.6694 9.69558 8.28319 12.1399C7.56483 12.8761 6.945 13.6727 6.49899 14.4373C6.189 14.9683 5.92702 15.4802 6.01247 15.5654Z" fill="#5490F9"/>
    <path d="M17.0017 7.49864C16.8142 6.81675 16.4516 6.17344 15.9148 5.63869C15.3763 5.10225 14.7292 4.74131 14.0439 4.55592C14.0535 4.54706 14.0613 4.53581 14.0675 4.52282C14.0678 4.5225 14.0678 4.5225 14.0678 4.5225C14.2518 4.34461 14.4369 4.1677 14.622 3.99084C15.4292 3.2205 16.7093 3.22153 17.5029 4.00622L17.5313 4.03453C18.319 4.82503 18.3245 6.10547 17.5569 6.91542C17.3722 7.11037 17.1874 7.30467 17.0017 7.49864Z" fill="#DA4A54"/>
    <path d="M15.282 5.10895C15.3595 5.03264 15.4367 4.95614 15.5142 4.87992C16.3065 4.10015 17.193 3.71198 17.5084 4.01212C17.5065 4.01015 17.5047 4.00809 17.5027 4.00612V4.00603C16.7094 3.22158 15.4292 3.22097 14.622 3.99084C14.4325 4.17168 14.2441 4.35361 14.0554 4.53515C14.486 4.65665 14.9006 4.8479 15.282 5.10895Z" fill="#C32430"/>
    <path d="M8.36316 15.3689C8.12621 15.4522 7.88339 15.5195 7.63552 15.5693C6.93483 15.7114 6.23039 15.7828 6.01256 15.5656C5.79436 15.3481 5.86336 14.644 6.00267 13.9426C6.05217 13.6944 6.11845 13.4513 6.20142 13.214C6.7546 13.2092 7.30978 13.4175 7.73288 13.8392C8.15588 14.2609 8.36621 14.8154 8.36316 15.3689Z" fill="#665E66"/>
    <path d="M6.01256 15.5656C5.79469 15.3477 5.86468 14.644 6.00296 13.943C6.05246 13.6947 6.11874 13.4516 6.20171 13.2143C6.53358 13.2116 6.86583 13.2857 7.16977 13.4359C6.91744 13.7709 6.69239 14.1072 6.49946 14.4374C6.19008 14.968 5.92824 15.4792 6.01256 15.5656Z" fill="#454045"/>
    <path d="M20.8734 12.3622H15.7819C15.5819 12.3622 15.4197 12.2 15.4197 12C15.4197 11.8 15.5819 11.6378 15.7819 11.6378H20.8734C21.0735 11.6378 21.2356 11.8 21.2356 12C21.2356 12.2 21.0735 12.3622 20.8734 12.3622Z" fill="#DA4A54"/>
    <path d="M20.8734 15.3985H15.7819C15.5819 15.3985 15.4197 15.2363 15.4197 15.0363C15.4197 14.8363 15.5819 14.6742 15.7819 14.6742H20.8734C21.0735 14.6742 21.2356 14.8363 21.2356 15.0363C21.2356 15.2363 21.0735 15.3985 20.8734 15.3985Z" fill="#5490F9"/>
    <path d="M8.41903 3.77771H3.32747C3.12745 3.77771 2.96531 3.61556 2.96531 3.41555C2.96531 3.21553 3.12745 3.05339 3.32747 3.05339H8.41903C8.61905 3.05339 8.78119 3.21553 8.78119 3.41555C8.78119 3.61552 8.61905 3.77771 8.41903 3.77771Z" fill="#DA4A54"/>
    <path d="M6.20128 5.47111H3.32747C3.12745 5.47111 2.96531 5.30897 2.96531 5.10895C2.96531 4.90894 3.12745 4.7468 3.32747 4.7468H6.20123C6.40125 4.7468 6.56339 4.90894 6.56339 5.10895C6.56344 5.30897 6.4013 5.47111 6.20128 5.47111Z" fill="#5490F9"/>
    <path d="M20.8734 13.8803H14.0554C13.8554 13.8803 13.6932 13.7182 13.6932 13.5182C13.6932 13.3182 13.8554 13.156 14.0554 13.156H20.8734C21.0735 13.156 21.2356 13.3182 21.2356 13.5182C21.2356 13.7182 21.0735 13.8803 20.8734 13.8803Z" fill="#5490F9"/>
  </g>
  <defs>
    <clipPath id="clip0_431_1550">
      <rect width="24" height="24" fill="white"/>
    </clipPath>
  </defs>
</svg>