<svg width="41" height="42" viewBox="0 0 41 42" fill="none" xmlns="http://www.w3.org/2000/svg">
<path d="M30.9997 10L29.1624 29.7977L20.904 32L12.6683 29.8008L10.833 10H30.9997Z" fill="#264DE4"/>
<path d="M27.5896 28.5371L29.1596 11.619H20.9163V30.3167L27.5896 28.5371Z" fill="#2965F1"/>
<path d="M15.0404 18.9629L15.2667 21.3913H20.9163V18.9629H15.0404Z" fill="#EBEBEB"/>
<path d="M20.9163 14.0475H20.9076H14.5857L14.8152 16.476H20.9163V14.0475Z" fill="#EBEBEB"/>
<path d="M20.9163 27.7965V25.2698L20.9053 25.2727L18.0935 24.5424L17.9138 22.6055H15.3794L15.7332 26.4186L20.9047 27.7996L20.9163 27.7965Z" fill="#EBEBEB"/>
<path d="M24.0164 21.3913L23.7234 24.5408L20.9076 25.2719V27.7984L26.0833 26.4186L26.7145 19.6149L26.7761 18.9628L27.2319 14.0475H20.9076L20.9076 16.476H24.4651L24.2354 18.9628H20.9076V21.3913H24.0164Z" fill="white"/>
</svg>
