<svg width="12" height="12" viewBox="0 0 12 12" fill="none" xmlns="http://www.w3.org/2000/svg">
<path d="M11.5 1.99998V4.99998M11.5 4.99998H8.5M11.5 4.99998L9.18 2.81998C8.64263 2.28233 7.97781 1.88958 7.2476 1.67836C6.51738 1.46715 5.74555 1.44435 5.00414 1.61211C4.26273 1.77986 3.5759 2.13269 3.00773 2.63769C2.43957 3.14268 2.00858 3.78337 1.755 4.49998M0.5 9.99998V6.99998M0.5 6.99998H3.5M0.5 6.99998L2.82 9.17998C3.35737 9.71762 4.02219 10.1104 4.7524 10.3216C5.48262 10.5328 6.25445 10.5556 6.99586 10.3878C7.73727 10.2201 8.4241 9.86726 8.99227 9.36227C9.56043 8.85727 9.99142 8.21658 10.245 7.49998" stroke="#7F56D9" stroke-width="1.5" stroke-linecap="round" stroke-linejoin="round"/>
</svg>
