<svg width="24" height="24" viewBox="0 0 24 24" fill="none" xmlns="http://www.w3.org/2000/svg">
<g clip-path="url(#clip0_431_1459)">
<path fillRule="evenodd" clipRule="evenodd" d="M0.841308 9.34146L5.27647 11.8756L10.9207 8.65073V3L0.331787 9.05049L0.841308 9.34146Z" fill="#00F6FF"/>
<path d="M1.84368 9.0504L10.1707 4.29235V8.21546L5.27647 11.0118L1.84368 9.0504Z" stroke="#0006FF" stroke-opacity="0.2" stroke-width="1.5"/>
<path fillRule="evenodd" clipRule="evenodd" d="M0.841308 14.4097L5.27647 11.8756L10.9207 15.1004V20.7512L0.331787 14.7007L0.841308 14.4097Z" fill="#5BB9E2"/>
<path d="M10.1707 15.5357V19.4588L1.84368 14.7008L5.27647 12.7394L10.1707 15.5357Z" stroke="#0006FF" stroke-opacity="0.2" stroke-width="1.5"/>
<path fillRule="evenodd" clipRule="evenodd" d="M23.8223 9.34146L19.3872 11.8756L13.7429 8.65073V3L24.3319 9.05049L23.8223 9.34146Z" fill="#00C3FF"/>
<path d="M14.4929 8.21546V4.29235L22.82 9.0504L19.3872 11.0118L14.4929 8.21546Z" stroke="#0006FF" stroke-opacity="0.2" stroke-width="1.5"/>
<path fillRule="evenodd" clipRule="evenodd" d="M23.8223 14.4097L19.3872 11.8756L13.7429 15.1004V20.7512L24.3319 14.7007L23.8223 14.4097Z" fill="#A1C7FF"/>
<path d="M14.4929 19.4588V15.5357L19.3872 12.7394L22.82 14.7008L14.4929 19.4588Z" stroke="#0006FF" stroke-opacity="0.2" stroke-width="1.5"/>
</g>
<defs>
<clipPath id="clip0_431_1459">
<rect width="24" height="24" fill="white"/>
</clipPath>
</defs>
</svg>
