<svg width="44" height="36" viewBox="0 0 44 36" fill="none" xmlns="http://www.w3.org/2000/svg">
<path d="M5.53955 29.2476C2.53467 29.2476 0.95752 27.7202 0.95752 24.6655V5.52393C0.95752 2.46924 2.53467 0.958496 5.53955 0.958496H38.4604C41.4653 0.958496 43.0425 2.46924 43.0425 5.52393V24.6655C43.0425 27.7202 41.4653 29.2476 38.4604 29.2476H5.53955ZM22.8716 22.0757C23.2036 22.0757 23.4526 21.8267 23.519 21.4946C24.4321 16.3813 24.9468 15.4517 30.2261 14.7544C30.5913 14.7046 30.8403 14.439 30.8403 14.0737C30.8403 13.7417 30.5913 13.4761 30.2261 13.4097C24.9966 12.7124 24.2993 11.7495 23.519 6.70264C23.4526 6.354 23.2036 6.10498 22.8716 6.10498C22.5229 6.10498 22.2573 6.3374 22.1743 6.70264C21.2778 11.8159 20.7466 12.7124 15.4839 13.4097C15.1187 13.4761 14.8696 13.7417 14.8696 14.0737C14.8696 14.439 15.1187 14.7046 15.4839 14.7544C20.73 15.3521 21.4106 16.3647 22.1743 21.478C22.2407 21.8267 22.4897 22.0757 22.8716 22.0757ZM15.8989 24.9146C16.1479 24.9146 16.3472 24.7485 16.4136 24.4995C16.8618 21.9595 16.729 21.8765 19.4683 21.4448C19.7173 21.395 19.8999 21.1792 19.8999 20.9468C19.8999 20.6978 19.7173 20.4985 19.4683 20.4487C16.729 20.0171 16.8618 19.9175 16.4136 17.4272C16.3472 17.1616 16.1812 16.9624 15.8989 16.9624C15.6499 16.9624 15.4839 17.145 15.4009 17.4272C14.936 19.9009 15.1187 19.9839 12.3628 20.4487C12.0972 20.4985 11.9312 20.6978 11.9312 20.9468C11.9312 21.2124 12.0972 21.395 12.396 21.4448C15.1021 21.8599 14.936 21.9595 15.4009 24.4497C15.4839 24.7319 15.6333 24.9146 15.8989 24.9146ZM13.5083 35.0415C12.6782 35.0415 11.9976 34.3608 11.9976 33.5474C11.9976 32.7173 12.6782 32.0366 13.5083 32.0366H30.4917C31.3218 32.0366 32.0024 32.7173 32.0024 33.5474C32.0024 34.3608 31.3218 35.0415 30.4917 35.0415H13.5083Z" fill="white"/>
</svg>
