<svg width="24" height="24" viewBox="0 0 24 24" fill="none" xmlns="http://www.w3.org/2000/svg">
<path d="M18.747 4.49702H18.113C16.9019 2.40639 14.6406 1 12.0506 1C8.4367 1 5.46263 3.73811 5.08903 7.25294H3.87502C1.73489 7.25294 0 8.98783 0 11.128C0 13.2681 1.73489 15.003 3.87502 15.003H19.0521V14.9939C21.8113 14.8359 24 12.5487 24 9.74997C24 6.84883 21.6481 4.49702 18.747 4.49702Z" fill="#80B4FB"/>
<path d="M13.4979 1.14986C12.2641 1.40917 11.1501 1.99347 10.249 2.80862C9.00698 3.93231 8.17013 5.49592 7.98323 7.25322H6.76922C4.62952 7.25322 2.89444 8.98825 2.89444 11.128C2.89444 12.1981 3.32808 13.1667 4.02923 13.8684C4.73039 14.5696 5.69911 15.0032 6.76917 15.0032H3.87525C2.80514 15.0032 1.83647 14.5696 1.1348 13.8684C0.433641 13.1667 0 12.1981 0 11.128C0 8.98825 1.73503 7.25322 3.87525 7.25322H5.08927C5.27616 5.49597 6.11255 3.93231 7.35455 2.80862C8.59655 1.68494 10.2437 1.00019 12.0507 1.00019C12.5467 1.00014 13.031 1.0518 13.4979 1.14986Z" fill="#5490F9"/>
<path d="M21.1913 12.0517V21.9055C21.1913 22.8138 20.4548 23.5502 19.5463 23.5502H10.5441C9.63553 23.5502 8.89908 22.8138 8.89908 21.9055V9.64614C8.89908 8.73794 9.63553 8.00149 10.5441 8.00149H17.1412L21.1913 12.0517Z" fill="#DFEAEF"/>
<path d="M21.1913 12.0517H18.7858C17.8776 12.0517 17.1411 11.3152 17.1411 10.4067L17.1412 8.00149" fill="#B4D0D5"/>
<path d="M19.217 21.2011L18.0056 17.9911C18.0043 17.9877 18.003 17.9845 18.0017 17.9812C17.9341 17.817 17.7759 17.711 17.5985 17.711C17.5983 17.711 17.5982 17.711 17.598 17.711C17.4204 17.7112 17.2622 17.8176 17.195 17.982C17.1938 17.9847 17.1928 17.9875 17.1917 17.9902L15.9692 21.2001C15.898 21.387 15.9918 21.5963 16.1788 21.6674C16.3656 21.7386 16.5749 21.6448 16.6461 21.4579L16.8617 20.8917H18.3261L18.5393 21.4569C18.5941 21.6019 18.7319 21.6913 18.8783 21.6913C18.9207 21.6913 18.9639 21.6838 19.006 21.6678C19.1932 21.5972 19.2877 21.3882 19.217 21.2011ZM17.1376 20.1674L17.5973 18.9606L18.0527 20.1674H17.1376Z" fill="#DD636E"/>
<path d="M19.0852 14.2841H11.0052C10.8052 14.2841 10.6431 14.122 10.6431 13.922C10.6431 13.722 10.8052 13.5598 11.0052 13.5598H19.0852C19.2852 13.5598 19.4473 13.722 19.4473 13.922C19.4474 14.122 19.2852 14.2841 19.0852 14.2841Z" fill="#665E66"/>
<path d="M17.5866 16.138H11.0052C10.8052 16.138 10.6431 15.9759 10.6431 15.7758C10.6431 15.5758 10.8052 15.4137 11.0052 15.4137H17.5866C17.7866 15.4137 17.9487 15.5758 17.9487 15.7758C17.9487 15.9759 17.7866 16.138 17.5866 16.138Z" fill="#665E66"/>
</svg>
