<svg width="15" height="19" viewBox="0 0 15 19" fill="none" xmlns="http://www.w3.org/2000/svg">
<path d="M7.07845 19C5.65574 19 4.41452 18.7494 3.3548 18.2483C2.29508 17.7472 1.46956 17.0444 0.87822 16.1401C0.29274 15.23 0 14.1701 0 12.9604C0 12.3211 0.0497658 11.7594 0.149297 11.2756C0.254684 10.786 0.383489 10.3511 0.535714 9.9709C0.687939 9.59072 0.840164 9.23071 0.992389 8.89086C1.15047 8.55101 1.27927 8.21404 1.37881 7.87995C1.48419 7.54009 1.53689 7.17144 1.53689 6.77399C1.53689 6.5551 1.52518 6.33909 1.50176 6.12597C1.48419 5.91284 1.47541 5.73715 1.47541 5.59891C1.47541 5.3685 1.53981 5.18417 1.66862 5.04593C1.80328 4.90769 1.976 4.83856 2.18677 4.83856C2.47951 4.83856 2.77518 4.92209 3.07377 5.08913C3.37237 5.25042 3.64754 5.48946 3.8993 5.80628C4.15105 6.11733 4.3589 6.50038 4.52283 6.95543L4.12763 7.05048C4.23888 6.85463 4.30913 6.68183 4.33841 6.53206C4.36768 6.38229 4.38232 6.22677 4.38232 6.06548C4.37646 5.51251 4.274 4.99121 4.07494 4.50159C3.87588 4.00621 3.61827 3.531 3.30211 3.07594C2.98595 2.62089 2.64637 2.17735 2.28337 1.74534C2.17799 1.63013 2.09895 1.50917 2.04625 1.38245C1.99356 1.24996 1.96721 1.12036 1.96721 0.993633C1.96721 0.671063 2.1048 0.426254 2.37998 0.259209C2.65515 0.0864029 3.02693 0 3.49532 0C4.274 0 5.0966 0.0921631 5.96311 0.276489C6.83548 0.460816 7.69906 0.748825 8.55386 1.14052C9.41452 1.52645 10.2313 2.01895 11.0041 2.61801C11.7769 3.21707 12.4619 3.92845 13.0591 4.75216C13.6622 5.57011 14.1364 6.50902 14.4819 7.56889C14.8273 8.62301 15 9.80385 15 11.1114C15 12.2923 14.8126 13.3694 14.4379 14.3429C14.0632 15.3106 13.5246 16.1401 12.822 16.8313C12.1194 17.5283 11.2822 18.064 10.3103 18.4384C9.34426 18.8128 8.26698 19 7.07845 19ZM7.28923 16.2697C7.96838 16.2697 8.5363 16.1257 8.99297 15.8377C9.4555 15.5496 9.80094 15.1666 10.0293 14.6885C10.2635 14.2046 10.3806 13.6747 10.3806 13.0987C10.3806 12.5169 10.2693 11.9409 10.0468 11.3706C9.82436 10.8004 9.49649 10.2791 9.06323 9.80673C8.63583 9.33439 8.10597 8.9571 7.47365 8.67485C7.41511 8.65181 7.36534 8.65469 7.32436 8.68349C7.28337 8.71229 7.26874 8.75838 7.28044 8.82174C7.36241 9.48416 7.36534 10.1034 7.28923 10.6794C7.21311 11.2554 7.06382 11.7162 6.84133 12.0618C6.73595 11.7969 6.61593 11.5578 6.48126 11.3447C6.3466 11.1258 6.18267 10.93 5.98946 10.7572C5.94262 10.7168 5.89578 10.7053 5.84895 10.7226C5.80796 10.7399 5.78454 10.7773 5.77869 10.8349C5.74941 11.0999 5.67037 11.3389 5.54157 11.5521C5.41862 11.7594 5.28103 11.9726 5.12881 12.1915C4.98244 12.4046 4.85363 12.6465 4.74239 12.9172C4.63115 13.1822 4.57553 13.5019 4.57553 13.8763C4.57553 14.5906 4.82436 15.1695 5.32201 15.613C5.81967 16.0508 6.47541 16.2697 7.28923 16.2697Z" fill="#FF6A00"/>
</svg>
