<svg width="24" height="24" viewBox="0 0 24 24" fill="none" xmlns="http://www.w3.org/2000/svg">
<path d="M21.7099 0V19.6984L4.15082 21.6145L2 21.8492V2.15082C2 1.55686 2.24047 1.01892 2.62972 0.629673C3.01897 0.240422 3.55686 0 4.15082 0L21.7099 0Z" fill="#DA4A54"/>
<path d="M4.15082 0V21.6145L2 21.8492V2.15082C2 1.55686 2.24047 1.01892 2.62972 0.629673C3.01897 0.240422 3.55686 0 4.15082 0Z" fill="#C32430"/>
<path d="M21.7101 19.6986H4.15077C2.96295 19.6986 2.00005 20.6615 2.00005 21.8493C2.00005 23.0371 2.96295 24 4.15077 24H21.7101V22.7927L20.2123 21.8195L21.7101 20.9057V19.6986Z" fill="#C32430"/>
<path d="M4.15076 22.7928C3.6305 22.7928 3.20726 22.3695 3.20726 21.8493C3.20726 21.329 3.6305 20.9058 4.15076 20.9058H21.7101V22.7928H4.15076Z" fill="#DFEAEF"/>
<path d="M17.8752 15.3912H7.81157C6.90009 15.3912 6.16124 14.6523 6.16124 13.7408V5.05342C6.16124 4.14193 6.90013 3.40308 7.81157 3.40308H17.8752C18.7867 3.40308 19.5255 4.14198 19.5255 5.05342V13.7408C19.5255 14.6523 18.7866 15.3912 17.8752 15.3912Z" fill="#DFEAEF"/>
<path d="M17.8752 15.7533H7.81157C6.70185 15.7533 5.79903 14.8505 5.79903 13.7408V5.05342C5.79903 3.9437 6.70185 3.04088 7.81157 3.04088H17.8751C18.9849 3.04088 19.8877 3.9437 19.8877 5.05342V13.7408C19.8877 14.8505 18.9849 15.7533 17.8752 15.7533ZM7.81157 3.76524C7.10127 3.76524 6.52339 4.34312 6.52339 5.05342V13.7408C6.52339 14.4511 7.10127 15.029 7.81157 15.029H17.8751C18.5854 15.029 19.1633 14.4511 19.1633 13.7408V5.05342C19.1633 4.34312 18.5854 3.76524 17.8751 3.76524H7.81157Z" fill="#C32430"/>
<path d="M17.8752 17.5849H7.81157C7.61151 17.5849 7.44941 17.4227 7.44941 17.2227C7.44941 17.0227 7.61155 16.8605 7.81157 16.8605H17.8751C18.0752 16.8605 18.2373 17.0227 18.2373 17.2227C18.2373 17.4227 18.0752 17.5849 17.8752 17.5849Z" fill="#454045"/>
<path d="M14.3761 11.5849C13.3661 11.5849 12.4299 10.9637 11.7399 9.83575C11.084 8.76339 10.7228 7.34514 10.7228 5.84218C10.7228 5.64217 10.8849 5.48003 11.085 5.48003C11.285 5.48003 11.4471 5.64217 11.4471 5.84218C11.4471 7.21361 11.7705 8.49761 12.3579 9.45775C12.9112 10.3623 13.628 10.8605 14.3761 10.8605C15.1243 10.8605 15.841 10.3623 16.3943 9.45775C16.9816 8.49761 17.305 7.21356 17.305 5.84218C17.305 5.64217 17.4672 5.48003 17.6672 5.48003C17.8672 5.48003 18.0294 5.64217 18.0294 5.84218C18.0294 7.34509 17.6681 8.76339 17.0122 9.83575C16.3223 10.9637 15.3861 11.5849 14.3761 11.5849Z" fill="#80B4FB"/>
<path d="M10.7733 14.1176C10.5733 14.1176 10.4112 13.9554 10.4112 13.7554V12.8749C10.4112 12.6748 10.5733 12.5127 10.7733 12.5127C10.9733 12.5127 11.1355 12.6748 11.1355 12.8749V13.7554C11.1355 13.9554 10.9734 14.1176 10.7733 14.1176Z" fill="#454045"/>
<path d="M12.6088 14.1176C12.4087 14.1176 12.2466 13.9554 12.2466 13.7554V12.8749C12.2466 12.6748 12.4087 12.5127 12.6088 12.5127C12.8088 12.5127 12.9709 12.6748 12.9709 12.8749V13.7554C12.971 13.9554 12.8088 14.1176 12.6088 14.1176Z" fill="#454045"/>
<path d="M14.4442 14.1176C14.2441 14.1176 14.0821 13.9554 14.0821 13.7554V12.8749C14.0821 12.6748 14.2442 12.5127 14.4442 12.5127C14.6442 12.5127 14.8064 12.6748 14.8064 12.8749V13.7554C14.8064 13.9554 14.6443 14.1176 14.4442 14.1176Z" fill="#454045"/>
<path d="M16.2796 14.1176C16.0796 14.1176 15.9175 13.9554 15.9175 13.7554V12.8749C15.9175 12.6748 16.0796 12.5127 16.2796 12.5127C16.4797 12.5127 16.6418 12.6748 16.6418 12.8749V13.7554C16.6418 13.9554 16.4797 14.1176 16.2796 14.1176Z" fill="#454045"/>
<path d="M9.15904 6.20439H8.27844C8.07838 6.20439 7.91629 6.04225 7.91629 5.84223C7.91629 5.64221 8.07843 5.48007 8.27844 5.48007H9.15904C9.3591 5.48007 9.5212 5.64221 9.5212 5.84223C9.5212 6.04225 9.35906 6.20439 9.15904 6.20439Z" fill="#454045"/>
<path d="M9.15904 8.03983H8.27844C8.07838 8.03983 7.91629 7.87769 7.91629 7.67767C7.91629 7.47765 8.07843 7.31551 8.27844 7.31551H9.15904C9.3591 7.31551 9.5212 7.47765 9.5212 7.67767C9.5212 7.87769 9.35906 8.03983 9.15904 8.03983Z" fill="#454045"/>
<path d="M9.15904 9.87527H8.27844C8.07838 9.87527 7.91629 9.71313 7.91629 9.51311C7.91629 9.3131 8.07843 9.15096 8.27844 9.15096H9.15904C9.3591 9.15096 9.5212 9.3131 9.5212 9.51311C9.5212 9.71313 9.35906 9.87527 9.15904 9.87527Z" fill="#454045"/>
<path d="M9.15904 11.7107H8.27844C8.07838 11.7107 7.91629 11.5486 7.91629 11.3486C7.91629 11.1485 8.07843 10.9864 8.27844 10.9864H9.15904C9.3591 10.9864 9.5212 11.1485 9.5212 11.3486C9.5212 11.5486 9.35906 11.7107 9.15904 11.7107Z" fill="#454045"/>
<path d="M9.15905 14.5113C8.95898 14.5113 8.79689 14.3492 8.79689 14.1492V4.80409C8.79689 4.60407 8.95903 4.44193 9.15905 4.44193C9.35906 4.44193 9.5212 4.60407 9.5212 4.80409V14.1492C9.5212 14.3492 9.35906 14.5113 9.15905 14.5113Z" fill="#665E66"/>
<path d="M17.1826 13.237H7.83755C7.63749 13.237 7.47539 13.0748 7.47539 12.8748C7.47539 12.6748 7.63753 12.5127 7.83755 12.5127H17.1826C17.3826 12.5127 17.5447 12.6748 17.5447 12.8748C17.5447 13.0748 17.3826 13.237 17.1826 13.237Z" fill="#665E66"/>
</svg>
