<svg width="25" height="23" viewBox="0 0 25 23" fill="none" xmlns="http://www.w3.org/2000/svg">
<path d="M23.7656 5.41797C24.416 5.70801 24.7588 6.24414 24.7588 6.81543C24.7588 7.38672 24.416 7.91406 23.7656 8.21289L15.1963 12.1328C14.2559 12.5635 13.4824 12.7568 12.7354 12.748C11.9883 12.7568 11.2148 12.5723 10.2744 12.1328L6.4248 10.375L11.8213 7.87891C12.1113 7.9668 12.4365 8.01074 12.7617 8.01074C13.7988 8.01074 14.8008 7.51855 14.8008 6.81543C14.8008 6.12109 13.7988 5.6377 12.7617 5.6377C11.7158 5.6377 10.7139 6.12109 10.7139 6.81543C10.7139 6.86816 10.7227 6.9209 10.7578 6.98242L4.96582 9.67188L1.70508 8.21289C1.05469 7.92285 0.711914 7.38672 0.711914 6.81543C0.711914 6.24414 1.05469 5.70801 1.70508 5.41797L10.2744 1.49805C11.2148 1.07617 11.9883 0.874023 12.7354 0.891602C13.4824 0.874023 14.2559 1.07617 15.1963 1.49805L23.7656 5.41797ZM6.39844 11.8428L9.7207 13.3545C10.8105 13.8555 11.8037 14.1016 12.7354 14.0928C13.667 14.1016 14.6689 13.8555 15.75 13.3545L21.542 10.7002V13.3193C21.542 16.123 17.8857 18.3555 12.7354 18.3555C10.1602 18.3555 7.96289 17.8018 6.39844 16.8701V11.8428ZM3.92871 10.709L5.00098 11.2012V15.7188C4.30664 14.9629 3.92871 14.084 3.92871 13.3193V10.709ZM4.1748 18.9443C4.1748 18.3291 4.49121 17.8896 5.00098 17.7227V15.7188C5.36133 16.1494 5.83594 16.5361 6.39844 16.8701V17.7227C6.9082 17.8896 7.21582 18.3379 7.21582 18.9443V21.2031C7.21582 21.9941 6.69727 22.5039 5.91504 22.5039H5.47559C4.69336 22.5039 4.1748 21.9941 4.1748 21.2031V18.9443Z" fill="#4558C8"/>
</svg>
