<svg width="24" height="19" viewBox="0 0 24 19" fill="none" xmlns="http://www.w3.org/2000/svg">
<path d="M24 1.82428V18.4127H0V1.82428" fill="#4558C8"/>
<path d="M24 16.947V18.4127H0V16.947" fill="#7B97DF"/>
<path d="M22.5948 1.82446V16.7787L15.4017 15.037C15.0491 14.9513 14.6938 14.9335 14.3511 14.9767C13.325 15.104 12.4094 15.7725 12 16.7787C11.5426 15.6561 10.4561 14.9542 9.28839 14.9542C9.06024 14.9542 8.82861 14.9811 8.5979 15.037L1.4046 16.7787V1.82446L8.5979 0.0827637C10.0065 -0.258545 11.4529 0.481934 12 1.82446C12.4094 0.818481 13.325 0.149963 14.3511 0.022522C14.4695 0.00732422 14.59 0 14.7111 0C14.9394 0 15.171 0.0269165 15.4017 0.0827637L22.5948 1.82446Z" fill="#E6E6E6"/>
<path d="M14.3511 0.022522V14.9767C13.325 15.104 12.4094 15.7725 12 16.7787V1.82446C12.4094 0.818481 13.325 0.149963 14.3511 0.022522Z" fill="#CCCCCC"/>
<path d="M22.5947 15.4532L22.5948 16.7787L15.4017 15.037C13.9929 14.6957 12.5466 15.4362 12 16.7787C11.5426 15.6561 10.4561 14.9542 9.28839 14.9542C9.06024 14.9542 8.82861 14.9811 8.5979 15.037L1.4046 16.7787L1.40442 15.4532L8.59772 13.7115C8.82825 13.6556 9.06006 13.6287 9.28821 13.6287C10.4559 13.6287 11.5424 14.3306 11.9998 15.4532C12.5464 14.1106 13.9927 13.37 15.4015 13.7115L22.5947 15.4532Z" fill="#CCCCCC"/>
<path d="M2.88883 4.38189C2.72312 4.38189 2.57279 4.2691 2.53214 4.10082C2.48435 3.90362 2.60557 3.70513 2.80259 3.65734L8.51127 2.27508C8.70866 2.22729 8.90714 2.3485 8.95475 2.54571C9.00254 2.74291 8.88132 2.9414 8.6843 2.98919L2.97563 4.37145C2.94651 4.37841 2.9174 4.38189 2.88883 4.38189Z" fill="#3B454F"/>
<path d="M21.1106 4.38189C21.082 4.38189 21.0529 4.37841 21.0238 4.37145L15.3151 2.98919C15.1181 2.94158 14.9969 2.74291 15.0447 2.54571C15.0924 2.34869 15.2907 2.22747 15.4881 2.27526L21.1968 3.65734C21.3938 3.70513 21.5151 3.9038 21.4673 4.10082C21.4266 4.2691 21.2763 4.38189 21.1106 4.38189Z" fill="#3B454F"/>
<path d="M2.88883 6.27282C2.72312 6.27282 2.57279 6.16003 2.53214 5.99175C2.48435 5.79455 2.60557 5.59606 2.80259 5.54827L8.51127 4.16601C8.70866 4.11822 8.90714 4.23943 8.95475 4.43664C9.00254 4.63384 8.88132 4.83233 8.6843 4.88012L2.97563 6.26238C2.94651 6.26952 2.9174 6.27282 2.88883 6.27282Z" fill="#3B454F"/>
<path d="M21.1106 6.27282C21.082 6.27282 21.0529 6.26934 21.0238 6.26238L15.3151 4.88012C15.1181 4.83251 14.9969 4.63384 15.0447 4.43664C15.0924 4.23962 15.2907 4.1184 15.4881 4.16619L21.1968 5.54827C21.3938 5.59606 21.5151 5.79473 21.4673 5.99175C21.4266 6.16003 21.2763 6.27282 21.1106 6.27282Z" fill="#3B454F"/>
<path d="M2.88883 8.16375C2.72312 8.16375 2.57279 8.05096 2.53214 7.88268C2.48435 7.68566 2.60557 7.48699 2.80259 7.4392L8.51127 6.05712C8.70866 6.00915 8.90714 6.13055 8.95475 6.32757C9.00254 6.52477 8.88132 6.72344 8.6843 6.77105L2.97563 8.15331C2.94651 8.16045 2.9174 8.16375 2.88883 8.16375Z" fill="#3B454F"/>
<path d="M21.1106 8.16375C21.082 8.16375 21.0529 8.16045 21.0238 8.15331L15.3151 6.77123C15.1181 6.72344 14.9969 6.52477 15.0447 6.32757C15.0924 6.13055 15.2907 6.00933 15.4881 6.05712L21.1968 7.43939C21.3938 7.48699 21.5151 7.68566 21.4673 7.88287C21.4266 8.05096 21.2763 8.16375 21.1106 8.16375Z" fill="#3B454F"/>
<path d="M2.88883 10.0547C2.72312 10.0547 2.57279 9.94188 2.53214 9.77361C2.48435 9.57659 2.60557 9.37792 2.80259 9.33013L8.51127 7.94805C8.70866 7.90007 8.90714 8.02129 8.95475 8.21849C9.00254 8.4157 8.88132 8.61437 8.6843 8.66197L2.97563 10.0442C2.94651 10.0514 2.9174 10.0547 2.88883 10.0547Z" fill="#3B454F"/>
<path d="M21.1106 10.0547C21.082 10.0547 21.0529 10.0514 21.0238 10.0442L15.3151 8.66216C15.1181 8.61437 14.9969 8.4157 15.0447 8.2185C15.0924 8.02148 15.2907 7.90026 15.4881 7.94805L21.1968 9.33032C21.3938 9.37792 21.5151 9.57659 21.4673 9.7738C21.4266 9.94189 21.2763 10.0547 21.1106 10.0547Z" fill="#3B454F"/>
<path d="M2.88883 11.9456C2.72312 11.9456 2.57279 11.8328 2.53214 11.6647C2.48435 11.4675 2.60557 11.2689 2.80259 11.2212L8.51127 9.83898C8.70866 9.79119 8.90714 9.91241 8.95475 10.1094C9.00254 10.3066 8.88132 10.5053 8.6843 10.5531L2.97563 11.9352C2.94651 11.9423 2.9174 11.9456 2.88883 11.9456Z" fill="#3B454F"/>
<path d="M21.1106 11.9456C21.082 11.9456 21.0529 11.9423 21.0238 11.9354L15.3151 10.5531C15.1181 10.5053 14.9969 10.3068 15.0447 10.1096C15.0924 9.91241 15.2907 9.79119 15.4881 9.83898L21.1968 11.2212C21.3938 11.269 21.5151 11.4675 21.4673 11.6647C21.4266 11.8328 21.2763 11.9456 21.1106 11.9456Z" fill="#3B454F"/>
<path d="M10.5306 16.947H13.4694V18.4127H10.5306V16.947Z" fill="#4558C8"/>
</svg>
