<svg width="19" height="17" viewBox="0 0 19 17" fill="none" xmlns="http://www.w3.org/2000/svg">
<path d="M9.5 16.625C9.38145 16.625 9.23481 16.5867 9.0601 16.51C8.89163 16.4393 8.73251 16.3568 8.58276 16.2624C6.84187 15.2013 5.32562 14.087 4.03399 12.9197C2.7486 11.7466 1.75337 10.541 1.04828 9.30293C0.349425 8.06489 0 6.81507 0 5.55346C0 4.734 0.137274 3.98528 0.411823 3.30731C0.692611 2.62345 1.07947 2.03391 1.57241 1.5387C2.07159 1.04348 2.64565 0.663231 3.29458 0.397939C3.94975 0.132646 4.65172 0 5.40049 0C6.33645 0 7.15074 0.224025 7.84335 0.672074C8.53596 1.11423 9.08818 1.69787 9.5 2.42301C9.91806 1.69198 10.4734 1.10539 11.166 0.663231C11.8586 0.221077 12.6698 0 13.5995 0C14.3483 0 15.0502 0.132646 15.7054 0.397939C16.3606 0.663231 16.9346 1.04348 17.4276 1.5387C17.9205 2.03391 18.3043 2.62345 18.5788 3.30731C18.8596 3.98528 19 4.734 19 5.55346C19 6.81507 18.6475 8.06489 17.9424 9.30293C17.2435 10.541 16.2514 11.7466 14.966 12.9197C13.6806 14.087 12.1706 15.2013 10.436 16.2624C10.28 16.3568 10.1177 16.4393 9.94926 16.51C9.78079 16.5867 9.63103 16.625 9.5 16.625Z" fill="#FA3336"/>
</svg>
