<svg xmlns="http://www.w3.org/2000/svg" width="24" height="25" viewBox="0 0 24 25" fill="none">
  <g clip-path="url(#clip0_431_1453)">
    <path d="M3.0011 22.6082L1 1H23L20.9989 22.5965L11.9818 25" fill="#E44D26"/>
    <path d="M11.9999 23.1625V2.77363H20.9928L19.2767 21.2082" fill="#F16529"/>
    <path d="M5.08709 5.41621H12V8.06473H8.10694L8.36163 10.7774H12V13.4201H5.83902L5.08709 5.41621ZM5.9603 14.7502H8.72546L8.91951 16.8678L12 17.6612V20.4264L6.34839 18.9096" fill="#EBEBEB"/>
    <path d="M18.8885 5.41621H11.9877V8.06473H18.6338L18.8885 5.41621ZM18.3852 10.7774H11.9877V13.4259H15.3835L15.0622 16.8678L11.9877 17.6612V20.4148L17.6272 18.9097" fill="white"/>
  </g>
  <defs>
    <clipPath id="clip0_431_1453">
      <rect width="24" height="24" fill="white" transform="translate(0 0.5)"/>
    </clipPath>
  </defs>
</svg>