<svg width="42" height="42" viewBox="0 0 42 42" fill="none" xmlns="http://www.w3.org/2000/svg">
<path d="M32 10H10V32H32V10Z" fill="#F7DF1E"/>
<path d="M24.7784 27.1876C25.2216 27.9111 25.7981 28.443 26.8178 28.443C27.6744 28.443 28.2216 28.0149 28.2216 27.4233C28.2216 26.7144 27.6594 26.4633 26.7165 26.0509L26.1997 25.8292C24.7079 25.1936 23.7168 24.3974 23.7168 22.7143C23.7168 21.1638 24.8982 19.9835 26.7444 19.9835C28.0589 19.9835 29.0038 20.4409 29.6848 21.6387L28.0749 22.6724C27.7205 22.0368 27.3381 21.7864 26.7444 21.7864C26.1389 21.7864 25.7551 22.1705 25.7551 22.6724C25.7551 23.2925 26.1393 23.5436 27.0262 23.9278L27.5431 24.1491C29.2996 24.9024 30.2913 25.6703 30.2913 27.3968C30.2913 29.258 28.8292 30.2777 26.8656 30.2777C24.9457 30.2777 23.7053 29.3628 23.0984 28.1636L24.7784 27.1876ZM17.4755 27.3667C17.8002 27.9429 18.0956 28.4301 18.8059 28.4301C19.4851 28.4301 19.9136 28.1643 19.9136 27.131V20.1015H21.9809V27.159C21.9809 29.2996 20.7259 30.2739 18.8939 30.2739C17.2387 30.2739 16.2801 29.4173 15.7926 28.3855L17.4755 27.3667Z" fill="black"/>
</svg>
