<svg width="24" height="24" viewBox="0 0 24 24" fill="none" xmlns="http://www.w3.org/2000/svg">
<g clip-path="url(#clip0_431_1468)">
<path d="M12.1636 23C12.0138 23 11.8286 22.9493 11.6079 22.8479C11.3951 22.7543 11.1941 22.645 11.005 22.5202C8.80594 21.116 6.89067 19.6415 5.25914 18.0968C3.6355 16.5443 2.37835 14.9489 1.48771 13.3106C0.604954 11.6723 0.163574 10.0184 0.163574 8.34894C0.163574 7.26454 0.336973 6.27376 0.683771 5.3766C1.03845 4.47163 1.52712 3.69149 2.14978 3.03617C2.78032 2.38085 3.50545 1.87766 4.32515 1.5266C5.15274 1.17553 6.03944 1 6.98525 1C8.16751 1 9.19609 1.29645 10.071 1.88936C10.9458 2.47447 11.6434 3.24681 12.1636 4.20638C12.6917 3.23901 13.3931 2.46277 14.268 1.87766C15.1429 1.29255 16.1675 1 17.3419 1C18.2877 1 19.1744 1.17553 20.002 1.5266C20.8296 1.87766 21.5547 2.38085 22.1774 3.03617C22.8 3.69149 23.2848 4.47163 23.6316 5.3766C23.9862 6.27376 24.1636 7.26454 24.1636 8.34894C24.1636 10.0184 23.7183 11.6723 22.8276 13.3106C21.9449 14.9489 20.6917 16.5443 19.068 18.0968C17.4444 19.6415 15.537 21.116 13.3458 22.5202C13.1488 22.645 12.9439 22.7543 12.7311 22.8479C12.5183 22.9493 12.3291 23 12.1636 23Z" fill="#FA3336"/>
</g>
<defs>
<clipPath id="clip0_431_1468">
<rect width="24" height="24" fill="white"/>
</clipPath>
</defs>
</svg>
