<svg width="24" height="24" viewBox="0 0 24 24" fill="none" xmlns="http://www.w3.org/2000/svg">
<path d="M21.7099 0V19.6984L4.15082 21.6145L2 21.8492V2.15082C2 1.55686 2.24047 1.01892 2.62972 0.629673C3.01897 0.240422 3.55686 0 4.15082 0H21.7099Z" fill="#4558C8"/>
<path d="M4.15082 0V21.6145L2 21.8492V2.15082C2 1.55686 2.24047 1.01892 2.62972 0.629673C3.01897 0.240422 3.55686 0 4.15082 0Z" fill="#324195"/>
<path d="M21.7101 19.6986H4.15077C2.96295 19.6986 2.00005 20.6615 2.00005 21.8493C2.00005 23.0371 2.96295 24 4.15077 24H21.7101V22.7927L20.8351 21.8492L21.7101 20.9057V19.6986Z" fill="#324195"/>
<path d="M4.15077 22.7928C3.6305 22.7928 3.20727 22.3696 3.20727 21.8493C3.20727 21.329 3.6305 20.9058 4.15077 20.9058H21.7101V22.7928H4.15077Z" fill="#DFEAEF"/>
<path d="M9.7447 4.66318L8.18119 3.05846L6.61767 4.66318V0H9.7447V4.66318Z" fill="#F4DD45"/>
<path d="M16.5621 6.01135H8.22426C7.38829 6.01135 6.71062 6.68903 6.71062 7.525V12.1436C6.71062 12.9796 7.38829 13.6573 8.22426 13.6573H16.5621C17.3981 13.6573 18.0758 12.9796 18.0758 12.1436V7.525C18.0758 6.68903 17.3981 6.01135 16.5621 6.01135Z" fill="#DFEAEF"/>
<path d="M16.5621 14.0195H8.22426C7.18992 14.0195 6.34842 13.178 6.34842 12.1437V7.52501C6.34842 6.49071 7.18992 5.64921 8.22426 5.64921H16.5621C17.5965 5.64921 18.438 6.49071 18.438 7.52501V12.1437C18.438 13.178 17.5965 14.0195 16.5621 14.0195ZM8.22426 6.37357C7.58934 6.37357 7.07278 6.89013 7.07278 7.52501V12.1437C7.07278 12.7786 7.58934 13.2951 8.22426 13.2951H16.5621C17.197 13.2951 17.7136 12.7786 17.7136 12.1437V7.52501C17.7136 6.89008 17.197 6.37357 16.5621 6.37357H8.22426Z" fill="#324195"/>
<path d="M15.795 9.23707H8.99142C8.79141 9.23707 8.62926 9.07493 8.62926 8.87491C8.62926 8.67489 8.79141 8.51275 8.99142 8.51275H15.7949C15.9949 8.51275 16.1571 8.67489 16.1571 8.87491C16.1571 9.07493 15.995 9.23707 15.795 9.23707Z" fill="#665E66"/>
<path d="M15.795 11.1559H8.99142C8.79141 11.1559 8.62926 10.9938 8.62926 10.7938C8.62926 10.5938 8.79141 10.4316 8.99142 10.4316H15.7949C15.9949 10.4316 16.1571 10.5938 16.1571 10.7938C16.1571 10.9938 15.995 11.1559 15.795 11.1559Z" fill="#665E66"/>
</svg>
