<svg width="19" height="19" viewBox="0 0 19 19" fill="none" xmlns="http://www.w3.org/2000/svg">
<path d="M9.16699 18.3252C7.91309 18.3252 6.73242 18.085 5.625 17.6045C4.51758 17.1299 3.54199 16.4707 2.69824 15.627C1.85449 14.7832 1.19238 13.8105 0.711914 12.709C0.237305 11.6016 0 10.418 0 9.1582C0 7.9043 0.237305 6.72656 0.711914 5.625C1.19238 4.51758 1.85156 3.54199 2.68945 2.69824C3.5332 1.85449 4.50879 1.19531 5.61621 0.720703C6.72363 0.240234 7.9043 0 9.1582 0C10.4121 0 11.5928 0.240234 12.7002 0.720703C13.8135 1.19531 14.7891 1.85449 15.627 2.69824C16.4707 3.54199 17.1328 4.51758 17.6133 5.625C18.0938 6.72656 18.334 7.9043 18.334 9.1582C18.334 10.418 18.0938 11.6016 17.6133 12.709C17.1328 13.8105 16.4707 14.7832 15.627 15.627C14.7891 16.4707 13.8164 17.1299 12.709 17.6045C11.6016 18.085 10.4209 18.3252 9.16699 18.3252ZM9.16699 16.3125C10.1572 16.3125 11.083 16.1279 11.9443 15.7588C12.8115 15.3896 13.5732 14.8799 14.2295 14.2295C14.8857 13.5732 15.3984 12.8145 15.7676 11.9531C16.1367 11.0859 16.3213 10.1543 16.3213 9.1582C16.3213 8.16797 16.1338 7.24219 15.7588 6.38086C15.3896 5.51367 14.877 4.75195 14.2207 4.0957C13.5703 3.43945 12.8115 2.92676 11.9443 2.55762C11.083 2.18848 10.1543 2.00391 9.1582 2.00391C8.16797 2.00391 7.23926 2.18848 6.37207 2.55762C5.51074 2.92676 4.75195 3.43945 4.0957 4.0957C3.44531 4.75195 2.93555 5.51367 2.56641 6.38086C2.20312 7.24219 2.02148 8.16797 2.02148 9.1582C2.02148 10.1543 2.20312 11.0859 2.56641 11.9531C2.93555 12.8145 3.44824 13.5732 4.10449 14.2295C4.76074 14.8799 5.51953 15.3896 6.38086 15.7588C7.24805 16.1279 8.17676 16.3125 9.16699 16.3125ZM7.69043 12.6123C7.51465 12.7119 7.33887 12.7529 7.16309 12.7354C6.99316 12.7178 6.84961 12.6504 6.73242 12.5332C6.62109 12.416 6.56543 12.2607 6.56543 12.0674V6.24023C6.56543 6.04688 6.62402 5.89453 6.74121 5.7832C6.8584 5.66602 7.00488 5.59863 7.18066 5.58105C7.35645 5.56348 7.52637 5.60449 7.69043 5.7041L12.4805 8.54297C12.6387 8.63672 12.7441 8.7627 12.7969 8.9209C12.8555 9.0791 12.8584 9.2373 12.8057 9.39551C12.7529 9.55371 12.6445 9.68262 12.4805 9.78223L7.69043 12.6123Z" fill="#E0F47E"/>
</svg>
