<svg width="24" height="18" viewBox="0 0 24 18" fill="none" xmlns="http://www.w3.org/2000/svg">
<path fillRule="evenodd" clipRule="evenodd" d="M4.94467 9L10.5889 5.72994V0L0 6.1353L4.94467 9Z" fill="#00F6FF"/>
<path fillRule="evenodd" clipRule="evenodd" d="M4.94467 9L10.5889 12.2701V18L0 11.8647L4.94467 9Z" fill="#5BB9E2"/>
<path fillRule="evenodd" clipRule="evenodd" d="M19.0553 9L13.4111 5.72994V0L24 6.1353L19.0553 9Z" fill="#00C3FF"/>
<path fillRule="evenodd" clipRule="evenodd" d="M19.0553 9L13.4111 12.2701V18L24 11.8647L19.0553 9Z" fill="#A1C7FF"/>
<path d="M4.94467 9.86678L9.83891 12.7023V16.6987L1.49606 11.8647L4.94467 9.86678ZM9.83891 5.29768L4.94467 8.13323L1.49606 6.13527L9.83891 1.30135V5.29768ZM19.0553 8.13323L14.1611 5.29768V1.30135L22.5039 6.13527L19.0553 8.13323ZM19.0553 9.86678L22.5039 11.8647L14.1611 16.6987V12.7023L19.0553 9.86678Z" stroke="#0006FF" stroke-opacity="0.2" stroke-width="1.5"/>
</svg>
