<svg xmlns="http://www.w3.org/2000/svg" width="24" height="24" viewBox="0 0 24 24" fill="none">
  <path d="M11.9135 0C5.82083 0 6.20125 2.65597 6.20125 2.65597L6.20801 5.40763H12.0222V6.23375H3.89872C3.89872 6.23375 0 5.78928 0 11.9689C0 18.1487 3.4029 17.9295 3.4029 17.9295H5.43374V15.0619C5.43374 15.0619 5.32425 11.6412 8.78232 11.6412H14.5489C14.5489 11.6412 17.7888 11.6938 17.7888 8.49361V3.20227C17.7888 3.20227 18.2808 0 11.9135 0ZM8.70761 1.85044C8.845 1.85031 8.98107 1.87742 9.10803 1.93022C9.23498 1.98301 9.35034 2.06046 9.44749 2.15812C9.54464 2.25578 9.62168 2.37173 9.6742 2.49935C9.72672 2.62698 9.75369 2.76376 9.75357 2.90187C9.75369 3.03998 9.72672 3.17676 9.6742 3.30438C9.62168 3.432 9.54464 3.54796 9.44749 3.64561C9.35034 3.74327 9.23498 3.82072 9.10803 3.87351C8.98107 3.92631 8.845 3.95342 8.70761 3.95329C8.57022 3.95342 8.43415 3.92631 8.30719 3.87351C8.18023 3.82072 8.06488 3.74327 7.96773 3.64561C7.87057 3.54796 7.79353 3.432 7.74101 3.30438C7.68849 3.17676 7.66152 3.03998 7.66165 2.90187C7.66152 2.76376 7.68849 2.62698 7.74101 2.49935C7.79353 2.37173 7.87057 2.25578 7.96773 2.15812C8.06488 2.06046 8.18023 1.98301 8.30719 1.93022C8.43415 1.87742 8.57022 1.85031 8.70761 1.85044Z" fill="url(#paint0_linear_307_1290)"/>
  <path d="M12.0866 24C18.1793 24 17.7988 21.344 17.7988 21.344L17.7921 18.5925H11.9778V17.7663H20.1013C20.1013 17.7663 24 18.2108 24 12.031C24 5.85126 20.5971 6.07043 20.5971 6.07043H18.5663V8.93801C18.5663 8.93801 18.6757 12.3587 15.2177 12.3587H9.45108C9.45108 12.3587 6.21123 12.3061 6.21123 15.5064V20.7978C6.21123 20.7978 5.71935 24 12.0866 24ZM15.2925 22.1497C15.1551 22.1499 15.019 22.1228 14.8921 22.07C14.7651 22.0172 14.6498 21.9397 14.5526 21.8421C14.4555 21.7444 14.3784 21.6285 14.3259 21.5008C14.2734 21.3732 14.2464 21.2364 14.2465 21.0983C14.2464 20.9602 14.2733 20.8234 14.3259 20.6958C14.3784 20.5681 14.4554 20.4522 14.5526 20.3545C14.6497 20.2568 14.7651 20.1794 14.892 20.1266C15.019 20.0738 15.1551 20.0467 15.2925 20.0468C15.4299 20.0467 15.5659 20.0738 15.6929 20.1266C15.8199 20.1794 15.9352 20.2568 16.0324 20.3545C16.1295 20.4521 16.2066 20.5681 16.2591 20.6957C16.3116 20.8233 16.3386 20.9601 16.3384 21.0982C16.3386 21.2363 16.3116 21.3731 16.2591 21.5007C16.2066 21.6284 16.1295 21.7443 16.0324 21.842C15.9352 21.9396 15.8199 22.0171 15.6929 22.0699C15.5659 22.1227 15.4299 22.1499 15.2925 22.1497Z" fill="url(#paint1_linear_307_1290)"/>
  <defs>
    <linearGradient id="paint0_linear_307_1290" x1="3.11016" y1="2.88936" x2="19.1134" y2="18.7682" gradientUnits="userSpaceOnUse">
      <stop stop-color="#387EB8"/>
      <stop offset="1" stop-color="#366994"/>
    </linearGradient>
    <linearGradient id="paint1_linear_307_1290" x1="9.60673" y1="9.75939" x2="22.442" y2="21.8299" gradientUnits="userSpaceOnUse">
      <stop stop-color="#FFE052"/>
      <stop offset="1" stop-color="#FFC331"/>
    </linearGradient>
  </defs>
</svg>