<svg width="21" height="17" viewBox="0 0 21 17" fill="none" xmlns="http://www.w3.org/2000/svg">
<path d="M0 15.126V3.19922C0 3.09961 0.00878906 3.00879 0.0263672 2.92676C0.0498047 2.83887 0.0849609 2.75098 0.131836 2.66309C0.418945 2.16504 0.832031 1.7168 1.37109 1.31836C1.91016 0.914062 2.53711 0.594727 3.25195 0.360352C3.97266 0.120117 4.74609 0 5.57227 0C6.49219 0 7.34473 0.158203 8.12988 0.474609C8.9209 0.791016 9.55664 1.20996 10.0371 1.73145C10.5117 1.20996 11.1416 0.791016 11.9268 0.474609C12.7178 0.158203 13.5762 0 14.502 0C15.3223 0 16.0898 0.120117 16.8047 0.360352C17.5254 0.594727 18.1553 0.914062 18.6943 1.31836C19.2334 1.7168 19.6436 2.16504 19.9248 2.66309C19.9775 2.75098 20.0127 2.83887 20.0303 2.92676C20.0479 3.00879 20.0566 3.09961 20.0566 3.19922V15.126C20.0566 15.5596 19.9336 15.8848 19.6875 16.1016C19.4414 16.3184 19.1396 16.4268 18.7822 16.4268C18.6064 16.4268 18.4365 16.3857 18.2725 16.3037C18.1143 16.2275 17.9297 16.125 17.7188 15.9961C17.2383 15.6855 16.7256 15.4424 16.1807 15.2666C15.6416 15.0908 15.0938 15.0059 14.5371 15.0117C13.9336 15.0176 13.3477 15.1289 12.7793 15.3457C12.2168 15.5684 11.7012 15.8994 11.2324 16.3389C11.0156 16.5439 10.8105 16.6875 10.6172 16.7695C10.4297 16.8574 10.2363 16.9014 10.0371 16.9014C9.83203 16.9014 9.63281 16.8574 9.43945 16.7695C9.25195 16.6875 9.0498 16.5439 8.83301 16.3389C8.36426 15.8994 7.8457 15.5684 7.27734 15.3457C6.71484 15.1289 6.13184 15.0176 5.52832 15.0117C4.96582 15.0059 4.41504 15.0908 3.87598 15.2666C3.33691 15.4424 2.82715 15.6855 2.34668 15.9961C2.12988 16.125 1.94238 16.2275 1.78418 16.3037C1.62598 16.3857 1.45898 16.4268 1.2832 16.4268C0.925781 16.4268 0.621094 16.3184 0.369141 16.1016C0.123047 15.8848 0 15.5596 0 15.126ZM1.95117 13.9922C2.41406 13.7051 2.95898 13.4795 3.58594 13.3154C4.21289 13.1455 4.875 13.0605 5.57227 13.0605C6.00586 13.0605 6.43359 13.1045 6.85547 13.1924C7.27734 13.2803 7.67285 13.4033 8.04199 13.5615C8.41699 13.7197 8.75391 13.9014 9.05273 14.1064V3.5332C8.75977 3.05273 8.29688 2.66895 7.66406 2.38184C7.03711 2.09473 6.33984 1.95117 5.57227 1.95117C5.06836 1.95117 4.58496 2.01562 4.12207 2.14453C3.65918 2.27344 3.2373 2.45508 2.85645 2.68945C2.48145 2.91797 2.17969 3.1875 1.95117 3.49805V13.9922ZM11.0039 14.1064C11.3027 13.9014 11.6396 13.7197 12.0146 13.5615C12.3896 13.4033 12.7852 13.2803 13.2012 13.1924C13.623 13.1045 14.0566 13.0605 14.502 13.0605C15.1875 13.0605 15.8438 13.1455 16.4707 13.3154C17.1035 13.4795 17.6484 13.7051 18.1055 13.9922V3.49805C17.8828 3.1875 17.5811 2.91797 17.2002 2.68945C16.8252 2.45508 16.4062 2.27344 15.9434 2.14453C15.4805 2.01562 15 1.95117 14.502 1.95117C13.7285 1.95117 13.0254 2.09473 12.3926 2.38184C11.7656 2.66895 11.3027 3.05273 11.0039 3.5332V14.1064Z" fill="#F2F7F9"/>
</svg>
