<svg width="24" height="24" viewBox="0 0 24 24" fill="none" xmlns="http://www.w3.org/2000/svg">
<path d="M20.998 15.0127C20.998 18.625 18.625 20.9893 14.6963 20.9893H12.5342C11.8838 20.9893 11.418 20.4971 11.418 19.8906C11.418 19.2842 11.8838 18.8008 12.5342 18.8008H14.5908C17.2979 18.8008 18.8359 17.1748 18.8359 14.9424C18.8359 12.7188 17.2979 11.1455 14.5908 11.1455H9.33496L7.32227 11.0576L8.77246 12.2705L10.8291 14.2656C11.0225 14.4678 11.1543 14.7051 11.1543 15.0391C11.1543 15.6455 10.7324 16.0938 10.0908 16.0938C9.80957 16.0938 9.51953 15.9707 9.2998 15.751L4.33398 10.8643C4.12305 10.6533 4 10.3457 4 10.0469C4 9.74805 4.12305 9.44922 4.33398 9.23828L9.2998 4.34277C9.51953 4.12305 9.80957 4 10.0908 4C10.7324 4 11.1543 4.44824 11.1543 5.05469C11.1543 5.38867 11.0225 5.62598 10.8291 5.82812L8.77246 7.83203L7.32227 9.04492L9.33496 8.95703H14.5996C18.5811 8.95703 20.998 11.4268 20.998 15.0127Z" fill="#484F56"/>
</svg>
