<svg width="16" height="20" viewBox="0 0 16 20" fill="none" xmlns="http://www.w3.org/2000/svg">
<path d="M2.88281 19.0547C1.93359 19.0547 1.21582 18.8145 0.729492 18.334C0.243164 17.8535 0 17.1416 0 16.1982V7.5498C0 6.6123 0.243164 5.90332 0.729492 5.42285C1.21582 4.93652 1.93359 4.69336 2.88281 4.69336H5.43164V6.4248H2.98828C2.57812 6.4248 2.26465 6.5332 2.04785 6.75C1.83691 6.96094 1.73145 7.28027 1.73145 7.70801V16.0488C1.73145 16.4766 1.83691 16.7959 2.04785 17.0068C2.26465 17.2236 2.57812 17.332 2.98828 17.332H12.8936C13.2979 17.332 13.6084 17.2236 13.8252 17.0068C14.0479 16.7959 14.1592 16.4766 14.1592 16.0488V7.70801C14.1592 7.28027 14.0479 6.96094 13.8252 6.75C13.6084 6.5332 13.2979 6.4248 12.8936 6.4248H10.459V4.69336H13.0078C13.957 4.69336 14.6748 4.93652 15.1611 5.42285C15.6475 5.90332 15.8906 6.6123 15.8906 7.5498V16.1982C15.8906 17.1357 15.6475 17.8447 15.1611 18.3252C14.6748 18.8115 13.957 19.0547 13.0078 19.0547H2.88281ZM7.94531 13.3594C7.83984 13.3594 7.7373 13.3418 7.6377 13.3066C7.53809 13.2656 7.43262 13.1924 7.32129 13.0869L4.36816 10.2393C4.22168 10.0869 4.14844 9.91406 4.14844 9.7207C4.14844 9.51562 4.21582 9.34863 4.35059 9.21973C4.49121 9.09082 4.66406 9.02637 4.86914 9.02637C5.0918 9.02637 5.27344 9.10547 5.41406 9.26367L6.64453 10.5732L7.21582 11.2148L7.12793 9.90527V0.799805C7.12793 0.583008 7.20703 0.395508 7.36523 0.237305C7.5293 0.0791016 7.72266 0 7.94531 0C8.16797 0 8.3584 0.0791016 8.5166 0.237305C8.68066 0.395508 8.7627 0.583008 8.7627 0.799805V9.90527L8.6748 11.2148L9.2373 10.5732L10.4678 9.26367C10.6143 9.10547 10.7959 9.02637 11.0127 9.02637C11.2119 9.02637 11.3818 9.09082 11.5225 9.21973C11.6689 9.34863 11.7422 9.51562 11.7422 9.7207C11.7422 9.91406 11.666 10.0869 11.5137 10.2393L8.56055 13.0869C8.45508 13.1924 8.35254 13.2656 8.25293 13.3066C8.15332 13.3418 8.05078 13.3594 7.94531 13.3594Z" fill="#F2F7F9"/>
</svg>
