<svg width="19" height="19" viewBox="0 0 19 19" fill="none" xmlns="http://www.w3.org/2000/svg">
<path d="M11.1006 18.6064C10.6787 18.6064 10.3682 18.457 10.1689 18.1582C9.96973 17.8652 9.80273 17.4961 9.66797 17.0508L7.83105 10.7754L1.48535 8.9209C1.05762 8.79199 0.703125 8.63086 0.421875 8.4375C0.140625 8.23828 0 7.92773 0 7.50586C0 7.16602 0.125977 6.87598 0.37793 6.63574C0.635742 6.39551 0.955078 6.20508 1.33594 6.06445L16.5498 0.237305C16.749 0.161133 16.9365 0.102539 17.1123 0.0615234C17.2881 0.0205078 17.4492 0 17.5957 0C17.9062 0 18.1523 0.0908203 18.334 0.272461C18.5156 0.454102 18.6064 0.700195 18.6064 1.01074C18.6064 1.16309 18.5859 1.32715 18.5449 1.50293C18.5039 1.67285 18.4453 1.85742 18.3691 2.05664L12.5771 17.209C12.4131 17.6309 12.2109 17.9678 11.9707 18.2197C11.7305 18.4775 11.4404 18.6064 11.1006 18.6064ZM8.33203 9.18457L13.6758 3.84082C13.9395 3.57715 14.2471 3.29883 14.5986 3.00586C14.9561 2.71289 15.293 2.4375 15.6094 2.17969C15.2168 2.36133 14.8359 2.54004 14.4668 2.71582C14.0977 2.88574 13.7227 3.04395 13.3418 3.19043L2.80371 7.21582C2.74512 7.2334 2.7041 7.25684 2.68066 7.28613C2.66309 7.30957 2.6543 7.33594 2.6543 7.36523C2.6543 7.38867 2.66602 7.41211 2.68945 7.43555C2.71289 7.45898 2.75684 7.47949 2.82129 7.49707L8.33203 9.18457ZM11.25 15.9697C11.2793 15.9697 11.3057 15.9551 11.3291 15.9258C11.3525 15.9023 11.373 15.8613 11.3906 15.8027L15.416 5.26465C15.5625 4.88379 15.7207 4.50586 15.8906 4.13086C16.0664 3.75586 16.248 3.36914 16.4355 2.9707C16.1836 3.29297 15.9053 3.63574 15.6006 3.99902C15.3018 4.35645 15.0234 4.66699 14.7656 4.93066L9.42188 10.2744L11.1094 15.7852C11.1328 15.8496 11.1533 15.8965 11.1709 15.9258C11.1943 15.9551 11.2207 15.9697 11.25 15.9697Z" fill="#F2F7F9"/>
</svg>
