<svg xmlns="http://www.w3.org/2000/svg" width="24" height="24" viewBox="0 0 24 24" fill="none">
  <g clip-path="url(#clip0_431_1489)">
    <path d="M22.285 8.04567C21.3402 8.04567 20.5701 7.28031 20.5701 6.33071C20.5701 7.27559 19.8047 8.04567 18.8551 8.04567C17.9055 8.04567 17.1402 7.28031 17.1402 6.33071C17.1402 7.27559 16.3748 8.04567 15.4252 8.04567C14.4803 8.04567 13.7102 7.28031 13.7102 6.33071C13.7102 7.27559 12.9449 8.04567 11.9953 8.04567C11.0457 8.04567 10.2803 7.28031 10.2803 6.33071C10.2803 7.27559 9.51497 8.04567 8.56536 8.04567C7.61575 8.04567 6.8504 7.28031 6.8504 6.33071C6.8504 7.27559 6.08504 8.04567 5.13544 8.04567C4.18583 8.04567 3.42993 7.28031 3.42993 6.33071C3.42993 7.27559 2.66457 8.04567 1.71497 8.04567C1.663 8.04567 1.61575 8.03622 1.56378 8.0315V21.8646H22.4362V8.0315C22.3843 8.03622 22.337 8.04567 22.285 8.04567Z" fill="#FFD15C"/>
    <path d="M3.42992 4.62047H0L1.56378 0H4.54488L3.42992 4.62047Z" fill="#FF7058"/>
    <path d="M6.85512 4.62047H3.42992L4.54488 0H7.52599L6.85512 4.62047Z" fill="#F2F2F2"/>
    <path d="M10.285 4.62047H6.85512L7.52599 0H10.5071L10.285 4.62047Z" fill="#FF7058"/>
    <path d="M17.1449 4.62047H13.715L13.4929 0H16.474L17.1449 4.62047Z" fill="#FF7058"/>
    <path d="M13.715 4.62047H10.285L10.5071 0H13.4929L13.715 4.62047Z" fill="#F2F2F2"/>
    <path d="M24 4.62047H20.5701L19.4551 0H22.4362L24 4.62047Z" fill="#FF7058"/>
    <path d="M20.5701 4.62047H17.1449L16.474 0H19.4551L20.5701 4.62047Z" fill="#F2F2F2"/>
    <path d="M24 21.8646H0V24H24V21.8646Z" fill="#40596B"/>
    <path d="M19.3039 10.252H4.69606V19.663H19.3039V10.252Z" fill="white"/>
    <path d="M18.2409 11.3197H5.76378V18.6H18.2409V11.3197Z" fill="#84DBFF"/>
    <path d="M0 6.33071C0 7.27559 0.765359 8.04567 1.71497 8.04567C2.66457 8.04567 3.42993 7.28031 3.42993 6.33071L3.42992 4.62047H0V6.33071Z" fill="#F1543F"/>
    <path d="M6.85512 6.33071C6.85512 7.27559 7.62048 8.04567 8.57008 8.04567C9.51969 8.04567 10.285 7.28032 10.285 6.33071V4.62047H6.85512V6.33071Z" fill="#F1543F"/>
    <path d="M13.715 6.33071C13.715 7.27559 14.4803 8.04567 15.4299 8.04567C16.3748 8.04567 17.1449 7.28032 17.1449 6.33071L17.1449 4.62047H13.715L13.715 6.33071Z" fill="#F1543F"/>
    <path d="M20.5701 4.62047L20.5701 6.33071C20.5701 7.27559 21.3354 8.04567 22.285 8.04567C23.2346 8.04567 24 7.28032 24 6.33071L24 4.62047H20.5701Z" fill="#F1543F"/>
    <path d="M3.42993 6.33071C3.42993 7.27559 4.19528 8.04567 5.14489 8.04567C6.09449 8.04567 6.85985 7.28032 6.85985 6.33071V4.62047L3.42992 4.62047L3.42993 6.33071Z" fill="#CDD6E0"/>
    <path d="M10.285 6.33071C10.285 7.27559 11.0504 8.04567 12 8.04567C12.9496 8.04567 13.715 7.28032 13.715 6.33071L13.715 4.62047H10.285V6.33071Z" fill="#CDD6E0"/>
    <path d="M17.1449 4.62047L17.1449 6.33071C17.1449 7.27559 17.9102 8.04567 18.8598 8.04567C19.8095 8.04567 20.5748 7.28032 20.5748 6.33071V4.62047L17.1449 4.62047Z" fill="#CDD6E0"/>
    <path d="M22.285 8.04567C21.3402 8.04567 20.5701 7.28031 20.5701 6.33071C20.5701 7.27559 19.8047 8.04567 18.8551 8.04567C17.9055 8.04567 17.1402 7.28031 17.1402 6.33071C17.1402 7.27559 16.3748 8.04567 15.4252 8.04567C14.4803 8.04567 13.7102 7.28031 13.7102 6.33071C13.7102 7.27559 12.9449 8.04567 11.9953 8.04567C11.0457 8.04567 10.2803 7.28031 10.2803 6.33071C10.2803 7.27559 9.51497 8.04567 8.56536 8.04567C7.61575 8.04567 6.8504 7.28031 6.8504 6.33071C6.8504 7.27559 6.08504 8.04567 5.13544 8.04567C4.18583 8.04567 3.42993 7.28031 3.42993 6.33071C3.42993 7.27559 2.66457 8.04567 1.71497 8.04567C1.663 8.04567 1.61575 8.03622 1.56378 8.0315V8.57008C1.61575 8.5748 1.663 8.57953 1.71497 8.57953C2.65985 8.57953 3.42993 7.81417 3.42993 6.86929C3.42993 7.81417 4.2 8.57953 5.14489 8.57953C6.08977 8.57953 6.85985 7.81417 6.85985 6.86929C6.85985 7.81417 7.62992 8.57953 8.57481 8.57953C9.51969 8.57953 10.2898 7.81417 10.2898 6.86929C10.2898 7.81417 11.0551 8.57953 12 8.57953C12.9449 8.57953 13.715 7.81417 13.715 6.86929C13.715 7.81417 14.485 8.57953 15.4299 8.57953C16.3748 8.57953 17.1449 7.81417 17.1449 6.86929C17.1449 7.81417 17.915 8.57953 18.8598 8.57953C19.8047 8.57953 20.5748 7.81417 20.5748 6.86929C20.5748 7.81417 21.3402 8.57953 22.2898 8.57953C22.3417 8.57953 22.389 8.5748 22.4409 8.57008V8.0315C22.3843 8.03622 22.337 8.04567 22.285 8.04567Z" fill="#F8B64C"/>
  </g>
  <defs>
    <clipPath id="clip0_431_1489">
      <rect width="24" height="24" fill="white"/>
    </clipPath>
  </defs>
</svg>