<svg width="24" height="24" viewBox="0 0 24 24" fill="none" xmlns="http://www.w3.org/2000/svg">
<path d="M19.4809 10.3615L21.6539 15.3078L22.6782 14.2836C22.95 14.0118 23.1026 13.6433 23.1026 13.2589V10.3615H19.4809Z" fill="#5668F0"/>
<path d="M21.6539 10.3615V15.3078L19.4809 17.4809V10.3615H21.6539Z" fill="#738CFF"/>
<path d="M19.4809 7.46414L21.6539 12.4105L22.6782 11.3862C22.95 11.1144 23.1026 10.7459 23.1026 10.3615V7.46414H19.4809Z" fill="#FF7B47"/>
<path d="M21.6539 7.46414V12.4105L19.4809 14.5835V7.46414H21.6539Z" fill="#FF9666"/>
<path d="M19.4809 4.56676L21.6539 9.51308L22.6782 8.48885C22.95 8.21698 23.1026 7.84853 23.1026 7.46414V4.56676H19.4809Z" fill="#FFD754"/>
<path d="M23.1026 1.81086L23.1026 4.56676C23.1026 4.9511 22.9499 5.31969 22.6782 5.59142L21.6539 6.61569L20.2052 4.03219L21.6539 1.44869H22.7404C22.9405 1.44869 23.1026 1.61085 23.1026 1.81086Z" fill="#C4E3FA"/>
<path d="M21.6539 4.56676V9.51308L19.4809 11.6861V4.56676H21.6539Z" fill="#FFEA70"/>
<path d="M21.6539 1.44869V6.61569L19.4809 8.78873V1.44869H21.6539Z" fill="#E3F5FF"/>
<path d="M20.2052 0.362173V18.2052L15.1348 20.3783V1.44869L18.7565 0H19.843C20.0431 0 20.2052 0.162157 20.2052 0.362173Z" fill="#775CB3"/>
<path d="M18.7565 0H4.17304C2.97304 0 2 0.973038 2 2.17304V20.3783H18.7565V16.7565L14.4105 9.10262L18.7565 1.44869L18.7565 0Z" fill="#8D6ED1"/>
<path d="M20.2052 18.2052L18.7565 18.2052L15.3763 21.1026L18.7565 24H19.8431C20.0431 24 20.2052 23.8378 20.2052 23.6378V22.5513L17.3079 21.1026L20.2052 19.6539L20.2052 18.2052Z" fill="#624D91"/>
<path d="M4.17304 18.2052C2.97304 18.2052 2 19.1783 2 20.3783V21.827C2 23.027 2.97304 24 4.17304 24H18.7565V18.2052H4.17304Z" fill="#775CB3"/>
<path d="M18.7565 19.6539L20.2052 19.6539C19.8049 20.0542 19.6045 20.5782 19.6045 21.1026L16.7071 21.827L18.7565 19.6539Z" fill="#C4E3FA"/>
<path d="M20.2052 22.5513H18.7565L16.7071 21.1026H19.6045C19.6045 21.627 19.8049 22.151 20.2052 22.5513Z" fill="#B0D0FF"/>
<path d="M4.17303 19.6539C3.77319 19.6539 3.44868 19.9784 3.44868 20.3783V21.827C3.44868 22.2268 3.77319 22.5513 4.17303 22.5513H5.62172V19.6539H4.17303Z" fill="#384F63"/>
<path d="M18.7565 22.5513H5.62172C5.22188 22.5513 4.89739 22.2268 4.89739 21.827V21.1026L5.62174 20.3783H17.4315L18.1558 21.1026C18.1558 21.627 18.3562 22.151 18.7565 22.5513Z" fill="#C4E3FA"/>
<path d="M5.62172 19.6539H18.7565C18.3562 20.0542 18.1558 20.5782 18.1558 21.1026H4.89739V20.3783C4.89739 19.9784 5.22188 19.6539 5.62172 19.6539Z" fill="#E3F5FF"/>
<path d="M18.7565 1.44869V16.7565H17.3078L12.2374 9.10262L17.3078 1.44869L18.7565 1.44869Z" fill="#A381E6"/>
<path d="M17.3078 1.44869L17.3079 2.89738L15.8592 4.34608L17.3079 5.79477L17.3078 16.7565H4.89739V1.44869H17.3078Z" fill="#BF96FF"/>
<path d="M17.3079 2.89738V5.79477H15.8592L10.7887 4.34608L15.8592 2.89738L17.3079 2.89738Z" fill="#624D91"/>
<path d="M6.34608 2.89738H15.8592V5.79477H6.34608V2.89738Z" fill="#775CB3"/>
</svg>
