<svg width="24" height="20" viewBox="0 0 24 20" fill="none" xmlns="http://www.w3.org/2000/svg">
<path d="M14.2139 13.4512H18.5381C19.4463 13.4512 20.126 13.2461 20.5771 12.8359C21.0342 12.4199 21.2627 11.8896 21.2627 11.2451C21.2627 10.5127 21.0254 9.91504 20.5508 9.45215C20.082 8.98926 19.4463 8.68164 18.6436 8.5293C18.5322 8.51172 18.4824 8.44141 18.4941 8.31836C18.5176 8.10742 18.5352 7.88184 18.5469 7.6416C18.5586 7.39551 18.5557 7.1582 18.5381 6.92969C18.4971 6.06836 18.2627 5.27734 17.835 4.55664C17.4131 3.83594 16.8418 3.25586 16.1211 2.81641C15.4062 2.37695 14.5859 2.15723 13.6602 2.15723C12.9336 2.15723 12.2949 2.28027 11.7441 2.52637C11.1992 2.7666 10.7305 3.0918 10.3379 3.50195C9.94531 3.91211 9.60547 4.37207 9.31836 4.88184C9.27148 4.96973 9.19531 4.99902 9.08984 4.96973C8.46289 4.78809 7.8623 4.76465 7.28809 4.89941C6.71387 5.03418 6.24512 5.34473 5.88184 5.83105C5.52441 6.31738 5.35742 7 5.38086 7.87891C5.38086 8.00781 5.32227 8.07227 5.20508 8.07227C4.30273 8.07227 3.59668 8.33301 3.08691 8.85449C2.57715 9.37598 2.32227 10.0498 2.32227 10.876C2.32227 11.3506 2.43652 11.7842 2.66504 12.1768C2.89355 12.5635 3.22754 12.874 3.66699 13.1084C4.10645 13.3369 4.64551 13.4512 5.28418 13.4512H9.35352V15.1826H5.29297C4.32031 15.1826 3.47949 14.9893 2.77051 14.6025C2.06738 14.2158 1.52539 13.7002 1.14453 13.0557C0.763672 12.4111 0.573242 11.6963 0.573242 10.9111C0.573242 10.208 0.705078 9.56641 0.96875 8.98633C1.23242 8.40039 1.60742 7.91406 2.09375 7.52734C2.58008 7.14062 3.15723 6.8916 3.8252 6.78027C3.84863 6.15918 4.00391 5.60254 4.29102 5.11035C4.57812 4.61816 4.94727 4.21094 5.39844 3.88867C5.85547 3.56055 6.35352 3.33789 6.89258 3.2207C7.43164 3.10352 7.95898 3.10938 8.47461 3.23828C8.84375 2.71094 9.2832 2.23633 9.79297 1.81445C10.3027 1.38672 10.8799 1.0498 11.5244 0.803711C12.1748 0.557617 12.8926 0.43457 13.6777 0.43457C14.5977 0.43457 15.4531 0.604492 16.2441 0.944336C17.0352 1.27832 17.7266 1.75293 18.3184 2.36816C18.916 2.97754 19.3789 3.69824 19.707 4.53027C20.041 5.3623 20.208 6.27637 20.208 7.27246C21.0811 7.61816 21.7666 8.14844 22.2646 8.86328C22.7627 9.57227 23.0117 10.3926 23.0117 11.3242C23.0117 12.0625 22.833 12.7217 22.4756 13.3018C22.1182 13.8818 21.6084 14.3418 20.9463 14.6816C20.2842 15.0156 19.4961 15.1826 18.582 15.1826H14.2139V13.4512ZM11.7881 19.5859C11.5596 19.5859 11.3633 19.5068 11.1992 19.3486C11.041 19.1904 10.9619 19.0059 10.9619 18.7949V10.6826L11.0498 9.10938L10.4873 9.75977L9.25684 10.999C9.09863 11.1572 8.91406 11.2363 8.70312 11.2363C8.50391 11.2363 8.33398 11.1719 8.19336 11.043C8.05273 10.9141 7.98242 10.7441 7.98242 10.5332C7.98242 10.3281 8.06152 10.1553 8.21973 10.0146L11.1641 7.24609C11.2754 7.14648 11.3779 7.07617 11.4717 7.03516C11.5713 6.99414 11.6768 6.97363 11.7881 6.97363C11.8936 6.97363 11.9932 6.99414 12.0869 7.03516C12.1865 7.07617 12.2891 7.14648 12.3945 7.24609L15.3477 10.0146C15.5 10.1553 15.5762 10.3281 15.5762 10.5332C15.5762 10.7441 15.5059 10.9141 15.3652 11.043C15.2246 11.1719 15.0547 11.2363 14.8555 11.2363C14.6504 11.2363 14.4688 11.1572 14.3105 10.999L13.0713 9.75977L12.5176 9.10938L12.5967 10.6826V18.7949C12.5967 19.0059 12.5176 19.1904 12.3594 19.3486C12.2012 19.5068 12.0107 19.5859 11.7881 19.5859Z" fill="white"/>
</svg>
