<svg xmlns="http://www.w3.org/2000/svg" width="30" height="36" viewBox="0 0 30 36" fill="none">
  <path d="M6.10986 35.9629C2.60693 35.9629 0.76416 34.1201 0.76416 30.584V5.48242C0.76416 1.89648 2.60693 0.0371094 6.15967 0.0371094H23.8403C27.3931 0.0371094 29.2358 1.91309 29.2358 5.48242V23.9268C29.2358 25.6035 28.5718 26.417 27.7583 27.1641C25.6665 29.1396 26.0815 31.9619 28.1235 32.8584C28.7378 33.1406 29.2358 33.6885 29.2358 34.4189C29.2358 35.2988 28.5718 35.9629 27.7085 35.9629H6.10986ZM23.5581 3.29102H8.30127V24.6904H24.687C25.5171 24.6904 25.9819 24.2422 25.9819 23.4287V5.68164C25.9819 4.1377 25.1685 3.29102 23.5581 3.29102ZM4.01807 25.2715C4.58252 24.9727 5.21338 24.7734 5.96045 24.707V3.32422C4.66553 3.47363 4.01807 4.28711 4.01807 5.68164V25.2715ZM11.2896 10.9277C10.6421 10.9277 10.1108 10.3965 10.1108 9.74902C10.1108 9.11816 10.6421 8.58691 11.2896 8.58691H22.9604C23.6079 8.58691 24.1392 9.11816 24.1392 9.74902C24.1392 10.3965 23.6079 10.9277 22.9604 10.9277H11.2896ZM11.2896 15.543C10.6421 15.543 10.1108 15.0283 10.1108 14.3809C10.1108 13.7334 10.6421 13.2021 11.2896 13.2021H20.1548C20.7856 13.2021 21.3169 13.7334 21.3169 14.3809C21.3169 15.0283 20.7856 15.543 20.1548 15.543H11.2896ZM6.5249 32.875H23.9565C23.0767 31.3643 22.9771 29.4717 23.7905 27.7285C23.6245 27.7451 23.4585 27.7617 23.2759 27.7617H6.65771C4.91455 27.7617 3.85205 28.8242 3.85205 30.3018C3.85205 31.8789 4.76514 32.875 6.5249 32.875Z" fill="#FFF"/>
</svg>