<svg width="24" height="24" viewBox="0 0 24 24" fill="none" xmlns="http://www.w3.org/2000/svg">
<path d="M3.54883 18.2754C2.75195 18.2754 2.12793 18.0498 1.67676 17.5986C1.22559 17.1475 1 16.5234 1 15.7266V5.54883C1 4.75195 1.22559 4.12793 1.67676 3.67676C2.12793 3.22559 2.75195 3 3.54883 3H20.96C21.7568 3 22.3809 3.22559 22.832 3.67676C23.2832 4.12793 23.5088 4.75195 23.5088 5.54883V15.7266C23.5088 16.5234 23.2832 17.1475 22.832 17.5986C22.3809 18.0498 21.7568 18.2754 20.96 18.2754H3.54883ZM3.69824 16.3945H20.8105C21.0684 16.3945 21.2676 16.3242 21.4082 16.1836C21.5547 16.043 21.6279 15.8408 21.6279 15.5771V5.69824C21.6279 5.43457 21.5547 5.23242 21.4082 5.0918C21.2676 4.95117 21.0684 4.88086 20.8105 4.88086H3.69824C3.44043 4.88086 3.23828 4.95117 3.0918 5.0918C2.95117 5.23242 2.88086 5.43457 2.88086 5.69824V15.5771C2.88086 15.8408 2.95117 16.043 3.0918 16.1836C3.23828 16.3242 3.44043 16.3945 3.69824 16.3945ZM7.70605 21.4219C7.46582 21.4219 7.26074 21.334 7.09082 21.1582C6.9209 20.9883 6.83594 20.7891 6.83594 20.5605C6.83594 20.3262 6.9209 20.124 7.09082 19.9541C7.26074 19.7842 7.46582 19.6992 7.70605 19.6992H16.8115C17.0459 19.6992 17.248 19.7842 17.418 19.9541C17.5879 20.124 17.6729 20.3262 17.6729 20.5605C17.6729 20.7891 17.5879 20.9883 17.418 21.1582C17.248 21.334 17.0459 21.4219 16.8115 21.4219H7.70605Z" fill="#F2F7F9"/>
</svg>
