<svg width="24" height="24" viewBox="0 0 24 24" fill="none" xmlns="http://www.w3.org/2000/svg">
<path d="M5.38184 15.9619C5.38184 16.2607 5.27051 16.5215 5.04785 16.7441C4.83105 16.9609 4.56738 17.0693 4.25684 17.0693C3.95801 17.0693 3.7002 16.9609 3.4834 16.7441C3.2666 16.5215 3.1582 16.2607 3.1582 15.9619C3.1582 15.6572 3.2666 15.3965 3.4834 15.1797C3.7002 14.957 3.95801 14.8457 4.25684 14.8457C4.5791 14.8457 4.8457 14.9541 5.05664 15.1709C5.27344 15.3877 5.38184 15.6514 5.38184 15.9619ZM5.38184 19.4512C5.38184 19.75 5.27051 20.0107 5.04785 20.2334C4.83105 20.4561 4.56738 20.5674 4.25684 20.5674C3.95801 20.5674 3.7002 20.4561 3.4834 20.2334C3.2666 20.0107 3.1582 19.75 3.1582 19.4512C3.1582 19.1406 3.2666 18.874 3.4834 18.6514C3.7002 18.4346 3.95801 18.3262 4.25684 18.3262C4.5791 18.3262 4.8457 18.4346 5.05664 18.6514C5.27344 18.8682 5.38184 19.1348 5.38184 19.4512ZM19.8047 15.9619C19.8047 16.2021 19.7168 16.4043 19.541 16.5684C19.3711 16.7266 19.1602 16.8057 18.9082 16.8057H7.28027C7.02246 16.8057 6.80859 16.7266 6.63867 16.5684C6.46875 16.4043 6.38379 16.2021 6.38379 15.9619C6.38379 15.7217 6.46875 15.5225 6.63867 15.3643C6.80859 15.2061 7.02246 15.127 7.28027 15.127H18.9082C19.1602 15.127 19.3711 15.2061 19.541 15.3643C19.7168 15.5225 19.8047 15.7217 19.8047 15.9619ZM19.8047 19.4512C19.8047 19.6914 19.7168 19.8906 19.541 20.0488C19.3711 20.2129 19.1602 20.2949 18.9082 20.2949H7.28027C7.02246 20.2949 6.80859 20.2129 6.63867 20.0488C6.46875 19.8906 6.38379 19.6914 6.38379 19.4512C6.38379 19.2109 6.46875 19.0117 6.63867 18.8535C6.80859 18.6953 7.02246 18.6162 7.28027 18.6162H18.9082C19.1602 18.6162 19.3711 18.6953 19.541 18.8535C19.7168 19.0117 19.8047 19.2109 19.8047 19.4512ZM5.64551 4H17.5459C18.501 4 19.1807 4.22266 19.585 4.66797C19.9893 5.10742 20.1914 5.79004 20.1914 6.71582V10.5654C20.1914 11.4912 19.9893 12.1768 19.585 12.6221C19.1807 13.0615 18.501 13.2812 17.5459 13.2812H5.64551C4.69043 13.2812 4.01074 13.0615 3.60645 12.6221C3.20215 12.1768 3 11.4912 3 10.5654V6.71582C3 5.79004 3.20215 5.10742 3.60645 4.66797C4.01074 4.22266 4.69043 4 5.64551 4ZM4.95117 10.6182C4.95117 10.9404 5.01562 11.1777 5.14453 11.3301C5.2793 11.4766 5.50488 11.5498 5.82129 11.5498H17.3701C17.6924 11.5498 17.918 11.4766 18.0469 11.3301C18.1758 11.1777 18.2402 10.9404 18.2402 10.6182V6.66309C18.2402 6.34668 18.1758 6.1123 18.0469 5.95996C17.918 5.80176 17.6924 5.72266 17.3701 5.72266H5.82129C5.50488 5.72266 5.2793 5.80176 5.14453 5.95996C5.01562 6.1123 4.95117 6.34668 4.95117 6.66309V10.6182Z" fill="#F2F7F9"/>
</svg>
