<svg width="44" height="28" viewBox="0 0 44 28" fill="none" xmlns="http://www.w3.org/2000/svg">
<path d="M6.31152 27.4224C2.72559 27.4224 0.866211 25.5796 0.866211 22.0269V5.97314C0.866211 2.42041 2.72559 0.577637 6.31152 0.577637H37.7051C41.2744 0.577637 43.1338 2.42041 43.1338 5.97314V22.0269C43.1338 25.5796 41.2744 27.4224 37.7051 27.4224H6.31152ZM7.54004 10.1069H9.13379C9.63184 10.1069 9.94727 9.7915 9.94727 9.29346V7.69971C9.94727 7.20166 9.63184 6.90283 9.13379 6.90283H7.54004C7.04199 6.90283 6.74316 7.20166 6.74316 7.69971V9.29346C6.74316 9.7915 7.04199 10.1069 7.54004 10.1069ZM13.002 10.1069H14.5791C15.0938 10.1069 15.3926 9.7915 15.3926 9.29346V7.69971C15.3926 7.20166 15.0938 6.90283 14.5791 6.90283H13.002C12.4873 6.90283 12.1885 7.20166 12.1885 7.69971V9.29346C12.1885 9.7915 12.4873 10.1069 13.002 10.1069ZM18.4473 10.1069H20.041C20.5391 10.1069 20.8545 9.7915 20.8545 9.29346V7.69971C20.8545 7.20166 20.5391 6.90283 20.041 6.90283H18.4473C17.9658 6.90283 17.6504 7.20166 17.6504 7.69971V9.29346C17.6504 9.7915 17.9658 10.1069 18.4473 10.1069ZM23.9092 10.1069H25.5029C25.9844 10.1069 26.2998 9.7915 26.2998 9.29346V7.69971C26.2998 7.20166 25.9844 6.90283 25.5029 6.90283H23.9092C23.4111 6.90283 23.0957 7.20166 23.0957 7.69971V9.29346C23.0957 9.7915 23.4111 10.1069 23.9092 10.1069ZM29.4043 10.1069H30.9648C31.4629 10.1069 31.7617 9.7915 31.7617 9.29346V7.69971C31.7617 7.20166 31.4629 6.90283 30.9648 6.90283H29.4043C28.873 6.90283 28.5576 7.20166 28.5576 7.69971V9.29346C28.5576 9.7915 28.873 10.1069 29.4043 10.1069ZM34.8164 10.1069H36.4102C36.9082 10.1069 37.207 9.7915 37.207 9.29346V7.69971C37.207 7.20166 36.9082 6.90283 36.4102 6.90283H34.8164C34.3184 6.90283 34.0029 7.20166 34.0029 7.69971V9.29346C34.0029 9.7915 34.3184 10.1069 34.8164 10.1069ZM7.54004 15.6021H9.13379C9.63184 15.6021 9.94727 15.2866 9.94727 14.7886V13.1948C9.94727 12.6968 9.63184 12.3813 9.13379 12.3813H7.54004C7.04199 12.3813 6.74316 12.6968 6.74316 13.1948V14.7886C6.74316 15.2866 7.04199 15.6021 7.54004 15.6021ZM13.002 15.6021H14.5791C15.0938 15.6021 15.3926 15.2866 15.3926 14.7886V13.1948C15.3926 12.6968 15.0938 12.3813 14.5791 12.3813H13.002C12.4873 12.3813 12.1885 12.6968 12.1885 13.1948V14.7886C12.1885 15.2866 12.4873 15.6021 13.002 15.6021ZM18.4473 15.6021H20.041C20.5391 15.6021 20.8545 15.2866 20.8545 14.7886V13.1948C20.8545 12.6968 20.5391 12.3813 20.041 12.3813H18.4473C17.9658 12.3813 17.6504 12.6968 17.6504 13.1948V14.7886C17.6504 15.2866 17.9658 15.6021 18.4473 15.6021ZM23.9092 15.6021H25.5029C25.9844 15.6021 26.2998 15.2866 26.2998 14.7886V13.1948C26.2998 12.6968 25.9844 12.3813 25.5029 12.3813H23.9092C23.4111 12.3813 23.0957 12.6968 23.0957 13.1948V14.7886C23.0957 15.2866 23.4111 15.6021 23.9092 15.6021ZM29.4043 15.6021H30.9648C31.4629 15.6021 31.7617 15.2866 31.7617 14.7886V13.1948C31.7617 12.6968 31.4629 12.3813 30.9648 12.3813H29.4043C28.873 12.3813 28.5576 12.6968 28.5576 13.1948V14.7886C28.5576 15.2866 28.873 15.6021 29.4043 15.6021ZM34.8164 15.6021H36.4102C36.9082 15.6021 37.207 15.2866 37.207 14.7886V13.1948C37.207 12.6968 36.9082 12.3813 36.4102 12.3813H34.8164C34.3184 12.3813 34.0029 12.6968 34.0029 13.1948V14.7886C34.0029 15.2866 34.3184 15.6021 34.8164 15.6021ZM7.54004 21.0806H9.13379C9.63184 21.0806 9.94727 20.7817 9.94727 20.2837V18.6899C9.94727 18.1919 9.63184 17.8765 9.13379 17.8765H7.54004C7.04199 17.8765 6.74316 18.1919 6.74316 18.6899V20.2837C6.74316 20.7817 7.04199 21.0806 7.54004 21.0806ZM13.1514 21.0806H30.7988C31.4131 21.0806 31.7617 20.7319 31.7617 20.1343V18.8394C31.7617 18.2251 31.4131 17.8765 30.7988 17.8765H13.1514C12.5537 17.8765 12.1885 18.2251 12.1885 18.8394V20.1343C12.1885 20.7319 12.5537 21.0806 13.1514 21.0806ZM34.8164 21.0806H36.4102C36.9082 21.0806 37.207 20.7817 37.207 20.2837V18.6899C37.207 18.1919 36.9082 17.8765 36.4102 17.8765H34.8164C34.3184 17.8765 34.0029 18.1919 34.0029 18.6899V20.2837C34.0029 20.7817 34.3184 21.0806 34.8164 21.0806Z" fill="white"/>
</svg>
