<svg width="56" height="57" viewBox="0 0 56 57" fill="none" xmlns="http://www.w3.org/2000/svg">
<rect x="4" y="4.5" width="48" height="48" rx="24" fill="#D1FADF"/>
<rect x="4" y="4.5" width="48" height="48" rx="24" stroke="#ECFDF3" stroke-width="8"/>
<path d="M38 27.5799V28.4999C37.9988 30.6563 37.3005 32.7545 36.0093 34.4817C34.7182 36.2088 32.9033 37.4723 30.8354 38.0838C28.7674 38.6952 26.5573 38.6218 24.5345 37.8744C22.5117 37.1271 20.7847 35.746 19.611 33.9369C18.4373 32.1279 17.8798 29.9879 18.0217 27.8362C18.1636 25.6844 18.9972 23.6362 20.3983 21.9969C21.7994 20.3577 23.6928 19.2152 25.7962 18.74C27.8996 18.2648 30.1003 18.4822 32.07 19.3599M38 20.4999L28 30.5099L25 27.5099" stroke="#039855" stroke-width="2" stroke-linecap="round" stroke-linejoin="round"/>
</svg>
