<svg width="432" height="180" viewBox="0 0 432 180" fill="none" xmlns="http://www.w3.org/2000/svg">
<g opacity="0.3" filter="url(#filter0_f_1130_7587)">
<path d="M384 93C384 110.673 369.673 125 352 125C334.327 125 261 110.673 261 93C261 75.3269 334.327 61 352 61C369.673 61 384 75.3269 384 93Z" fill="#FFD064"/>
</g>
<g opacity="0.3" filter="url(#filter1_f_1130_7587)">
<path d="M48 93C48 110.673 62.3269 125 80 125C97.6731 125 171 110.673 171 93C171 75.3269 97.6731 61 80 61C62.3269 61 48 75.3269 48 93Z" fill="#FFD064"/>
</g>
<path d="M192.886 93.3925H176.566C169.709 93.3925 162.925 91.0912 157.462 86.9131L136.091 70.5667C126.151 62.9632 122.268 49.8871 126.429 38.0282C130.407 26.6942 141.093 18.983 153.019 18.8398C164.674 18.7003 171.295 19.0716 171.571 19.0876L170.841 32.0178C170.777 32.0144 164.335 31.6573 153.172 31.7902C146.61 31.8689 140.73 36.1116 138.541 42.3477C136.252 48.8722 138.388 56.0667 143.858 60.2502L165.228 76.5966C168.469 79.0762 172.496 80.4417 176.565 80.4417H192.885V93.3925H192.886Z" fill="#FFD064"/>
<path d="M157.463 80.0899L136.092 63.7435C129.756 58.8973 125.886 51.827 124.986 44.2667C123.801 54.2535 127.873 64.2805 136.091 70.5667L157.462 86.9131C162.925 91.0912 169.709 93.3925 176.566 93.3925H192.886L192.886 86.5693H176.566C169.71 86.5693 162.925 84.2681 157.463 80.0899Z" fill="#ECBE6B"/>
<path d="M239.173 93.3925H255.493C262.35 93.3925 269.134 91.0912 274.597 86.9131L295.968 70.5667C305.908 62.9632 309.791 49.8871 305.63 38.0282C301.652 26.6942 290.967 18.983 279.04 18.8398C267.386 18.7003 260.764 19.0716 260.488 19.0876L261.218 32.0178C261.282 32.0144 267.724 31.6573 278.887 31.7902C285.45 31.8689 291.33 36.1116 293.518 42.3477C295.807 48.8722 293.671 56.0667 288.202 60.2502L266.831 76.5966C263.59 79.0762 259.563 80.4417 255.494 80.4417H239.174V93.3925H239.173Z" fill="#FFD064"/>
<path d="M305.629 38.0282C303.768 32.7229 300.436 28.2117 296.195 24.8983C298.024 27.2755 299.504 29.9599 300.531 32.8895C304.693 44.7483 300.81 57.8244 290.869 65.4279L269.498 81.7743C264.036 85.9525 257.251 88.2537 250.395 88.2537H239.172V93.3925H255.492C262.349 93.3925 269.133 91.0912 274.596 86.9131L295.967 70.5667C305.908 62.9632 309.791 49.8871 305.629 38.0282Z" fill="#ECBE6B"/>
<path d="M236.837 140.827L229.237 135.021C225.97 132.526 224.052 128.633 224.052 124.501V98.728H206.838V124.501C206.838 128.633 204.919 132.526 201.653 135.021L194.053 140.827C191.684 142.637 192.954 146.445 195.926 146.445H234.963C237.936 146.444 239.206 142.637 236.837 140.827Z" fill="#FFD064"/>
<path d="M236.837 140.827L229.237 135.021C225.97 132.526 224.052 128.633 224.052 124.501V98.728H215.13V124.501C215.13 128.633 217.049 132.526 220.315 135.021L227.915 140.827C230.284 142.637 229.014 146.445 226.042 146.445H234.963C237.936 146.444 239.206 142.637 236.837 140.827Z" fill="#ECBE6B"/>
<path d="M264.305 0H167.754C165.905 0 164.405 1.51138 164.405 3.37607V38.2272C164.405 53.1489 168.527 67.7758 176.309 80.4692L185.225 95.0116C199.198 117.804 232.028 117.96 246.213 95.3007L255.353 80.701C263.389 67.8648 267.654 52.9969 267.654 37.8186V3.37607C267.654 1.51176 266.155 0 264.305 0Z" fill="#FFE07D"/>
<path d="M264.305 0H248.829V18.8424C248.829 34.0208 244.564 48.889 236.528 61.7253L227.388 76.325C217.269 92.4892 197.663 97.0394 182.181 90.0474L185.225 95.012C199.198 117.804 232.028 117.96 246.213 95.3011L255.353 80.7014C263.389 67.8652 267.654 52.9973 267.654 37.8189L267.654 3.37607C267.654 1.51176 266.155 0 264.305 0Z" fill="#FFD064"/>
<path d="M216 167.823C197.672 167.823 179.887 162.307 164.568 151.871C149.672 141.724 137.8 127.451 130.237 110.598C129.572 109.117 130.225 107.374 131.694 106.704C133.163 106.034 134.893 106.692 135.557 108.172C150.214 140.833 181.79 161.937 216 161.937C250.21 161.937 281.785 140.833 296.442 108.172C297.107 106.692 298.836 106.034 300.305 106.704C301.774 107.374 302.427 109.117 301.762 110.598C294.199 127.451 282.327 141.724 267.431 151.871C252.112 162.306 234.327 167.823 216 167.823Z" fill="#0DC183"/>
<path d="M309.426 103.693C306.238 111.3 300.802 116.252 297.284 114.754C293.767 113.256 293.5 105.874 296.688 98.2673C298.998 92.7562 306.61 83.995 310.629 79.5853C311.497 78.6328 313.07 79.3027 312.997 80.5941C312.663 86.5728 311.736 98.1818 309.426 103.693Z" fill="#AAD880"/>
<path d="M310.629 79.5857C309.515 80.8088 308.123 82.3675 306.645 84.0981C306.117 89.963 305.175 96.9531 303.534 100.868C301.288 106.226 297.927 110.264 294.906 111.661C295.358 113.175 296.152 114.271 297.285 114.754C300.802 116.252 306.238 111.3 309.427 103.693C311.737 98.1818 312.663 86.5732 312.998 80.5945C313.07 79.3027 311.497 78.6332 310.629 79.5857Z" fill="#80CB8E"/>
<path d="M288.069 120.605C288.309 128.401 285.581 134.813 281.976 134.926C278.371 135.038 275.254 128.809 275.014 121.013C274.841 115.364 277.946 104.819 279.67 99.4361C280.043 98.2734 281.654 98.223 282.097 99.3605C284.149 104.625 287.896 114.957 288.069 120.605Z" fill="#AAD880"/>
<path d="M266.268 136.01C269.315 143.179 269.098 150.152 265.783 151.584C262.467 153.016 257.309 148.365 254.262 141.195C252.054 136.001 251.124 125.04 250.78 119.395C250.705 118.175 252.187 117.535 253.012 118.431C256.829 122.576 264.06 130.815 266.268 136.01Z" fill="#AAD880"/>
<path d="M266.268 136.01C264.06 130.815 256.829 122.576 253.012 118.431C252.187 117.535 250.705 118.175 250.78 119.395C250.878 121.008 251.025 123.057 251.235 125.281C254.799 129.443 258.78 134.544 260.32 138.166C262.454 143.188 262.985 148.111 261.973 151.103C263.351 151.857 264.671 152.064 265.783 151.584C269.098 150.153 269.315 143.179 266.268 136.01Z" fill="#80CB8E"/>
<path d="M285.704 152.71C278.397 150.142 273.437 145.277 274.624 141.843C275.812 138.41 282.698 137.709 290.004 140.277C295.297 142.138 303.952 148.838 308.319 152.39C309.263 153.157 308.732 154.692 307.52 154.701C301.909 154.746 290.997 154.57 285.704 152.71Z" fill="#AAD880"/>
<path d="M262.497 168.795C255.191 166.227 250.23 161.362 251.418 157.929C252.605 154.496 259.491 153.794 266.798 156.363C272.091 158.223 280.746 164.924 285.113 168.475C286.056 169.242 285.525 170.777 284.313 170.787C278.702 170.831 267.791 170.656 262.497 168.795Z" fill="#AAD880"/>
<path d="M308.319 152.39C306.544 150.947 304.061 148.984 301.384 147.036C295.486 147.028 286.066 146.726 281.266 145.039C278.737 144.15 276.49 142.987 274.681 141.702C274.662 141.749 274.64 141.795 274.623 141.843C273.436 145.276 278.397 150.141 285.703 152.71C290.996 154.57 301.908 154.746 307.519 154.701C308.732 154.692 309.263 153.157 308.319 152.39Z" fill="#80CB8E"/>
<path d="M285.113 168.475C283.338 167.032 280.855 165.07 278.178 163.122C272.28 163.114 262.86 162.812 258.06 161.125C255.531 160.236 253.284 159.072 251.475 157.788C251.456 157.835 251.434 157.881 251.418 157.929C250.23 161.362 255.191 166.227 262.497 168.795C267.791 170.656 278.702 170.831 284.313 170.787C285.525 170.777 286.056 169.242 285.113 168.475Z" fill="#80CB8E"/>
<path d="M122.573 103.693C125.762 111.3 131.198 116.252 134.715 114.754C138.233 113.256 138.499 105.874 135.311 98.2673C133.001 92.7562 125.39 83.995 121.371 79.5853C120.503 78.6328 118.93 79.3027 119.002 80.5941C119.337 86.5728 120.263 98.1818 122.573 103.693Z" fill="#AAD880"/>
<path d="M135.311 98.2673C133.001 92.7562 125.39 83.995 121.371 79.5853C120.503 78.6328 118.93 79.3027 119.002 80.5941C119.096 82.2598 119.235 84.3624 119.437 86.6484C123.297 91.1642 127.759 96.869 129.434 100.865C131.642 106.133 132.192 111.291 131.154 114.464C132.438 115.069 133.663 115.202 134.715 114.754C138.233 113.256 138.5 105.874 135.311 98.2673Z" fill="#80CB8E"/>
<path d="M143.93 120.605C143.691 128.401 146.419 134.813 150.024 134.926C153.629 135.038 156.746 128.809 156.986 121.013C157.159 115.364 154.054 104.819 152.33 99.4361C151.957 98.2734 150.346 98.223 149.903 99.3605C147.851 104.625 144.104 114.957 143.93 120.605Z" fill="#AAD880"/>
<path d="M288.069 120.605C287.896 114.957 284.149 104.625 282.097 99.3605C281.654 98.2234 280.043 98.2738 279.67 99.4361C279.162 101.021 278.535 103.054 277.907 105.277C279.715 110.462 281.571 116.669 281.692 120.605C281.857 125.97 280.616 130.679 278.651 133.132C279.649 134.305 280.785 134.963 281.975 134.926C285.581 134.813 288.309 128.401 288.069 120.605Z" fill="#80CB8E"/>
<path d="M152.33 99.4361C151.957 98.2734 150.346 98.2234 149.902 99.3605C149.28 100.957 148.502 103.021 147.715 105.277C149.22 110.605 150.73 117.028 150.608 121.013C150.447 126.235 148.995 130.751 146.971 133.132C147.861 134.243 148.9 134.89 150.024 134.926C153.629 135.038 156.746 128.809 156.986 121.013C157.159 115.364 154.054 104.819 152.33 99.4361Z" fill="#80CB8E"/>
<path d="M165.732 136.01C162.684 143.179 162.901 150.152 166.217 151.584C169.532 153.016 174.69 148.365 177.738 141.195C179.946 136.001 180.875 125.04 181.22 119.395C181.294 118.175 179.812 117.535 178.988 118.431C175.171 122.576 167.94 130.815 165.732 136.01Z" fill="#AAD880"/>
<path d="M178.988 118.431C177.797 119.724 176.274 121.416 174.674 123.29C174.139 128.71 173.225 135.005 171.708 138.575C169.67 143.369 166.689 147.035 163.945 148.51C164.356 150.016 165.114 151.108 166.216 151.584C169.532 153.016 174.69 148.365 177.737 141.195C179.945 136 180.875 125.04 181.22 119.394C181.294 118.175 179.812 117.535 178.988 118.431Z" fill="#80CB8E"/>
<path d="M146.296 152.71C153.602 150.142 158.563 145.277 157.375 141.843C156.188 138.41 149.302 137.709 141.996 140.277C136.702 142.138 128.048 148.838 123.68 152.39C122.737 153.157 123.268 154.692 124.48 154.701C130.091 154.746 141.002 154.57 146.296 152.71Z" fill="#AAD880"/>
<path d="M169.502 168.795C176.809 166.227 181.769 161.362 180.582 157.929C179.394 154.496 172.509 153.794 165.202 156.363C159.909 158.223 151.254 164.924 146.887 168.475C145.944 169.242 146.474 170.777 147.686 170.787C153.297 170.831 164.209 170.656 169.502 168.795Z" fill="#AAD880"/>
<path d="M157.375 141.843C156.889 140.438 155.448 139.491 153.414 139.038C152.292 142.031 148.068 145.358 142.457 147.33C138.94 148.566 132.946 149.058 127.673 149.236C126.152 150.402 124.78 151.496 123.68 152.39C122.737 153.157 123.268 154.692 124.48 154.701C130.091 154.745 141.002 154.57 146.296 152.709C153.603 150.142 158.563 145.277 157.375 141.843Z" fill="#80CB8E"/>
<path d="M180.582 157.929C180.096 156.524 178.654 155.577 176.62 155.124C175.499 158.117 171.274 161.444 165.663 163.416C162.147 164.652 156.152 165.144 150.879 165.322C149.358 166.488 147.986 167.582 146.887 168.476C145.944 169.243 146.474 170.777 147.686 170.787C153.297 170.831 164.209 170.656 169.502 168.796C176.809 166.227 181.769 161.362 180.582 157.929Z" fill="#80CB8E"/>
<path d="M215.13 71.2996C227.196 71.2996 236.977 61.4398 236.977 49.2771C236.977 37.1144 227.196 27.2545 215.13 27.2545C203.064 27.2545 193.283 37.1144 193.283 49.2771C193.283 61.4398 203.064 71.2996 215.13 71.2996Z" fill="#ECBE6B"/>
<path d="M223.264 28.8381C224.274 31.3731 224.835 34.1384 224.835 37.0374C224.835 49.2003 215.054 59.06 202.988 59.06C200.112 59.06 197.369 58.4943 194.854 57.4764C198.081 65.5772 205.94 71.2996 215.13 71.2996C227.196 71.2996 236.977 61.4398 236.977 49.2771C236.977 40.0128 231.3 32.0912 223.264 28.8381Z" fill="#EAB14D"/>
<path d="M216.725 39.4827L219.012 44.1544C219.22 44.5787 219.622 44.8732 220.087 44.9412L225.201 45.6902C226.372 45.8617 226.839 47.3116 225.992 48.1438L222.291 51.7804C221.955 52.1108 221.801 52.5871 221.881 53.0534L222.755 58.1884C222.955 59.3633 221.731 60.2593 220.684 59.7047L216.11 57.2805C215.694 57.0601 215.197 57.0601 214.782 57.2805L210.207 59.7047C209.16 60.2593 207.937 59.3633 208.137 58.1884L209.011 53.0534C209.09 52.5867 208.937 52.1108 208.6 51.7804L204.899 48.1438C204.053 47.3116 204.52 45.8617 205.69 45.6902L210.805 44.9412C211.27 44.8732 211.671 44.5787 211.879 44.1544L214.167 39.4827C214.689 38.4136 216.201 38.4136 216.725 39.4827Z" fill="#FFE07D"/>
<path d="M225.992 48.1443C226.838 47.312 226.371 45.8621 225.201 45.6906L223.336 45.4175L218.366 50.3011C217.868 50.7904 217.641 51.4955 217.758 52.1864L218.875 58.7461L220.684 59.7048C221.731 60.2594 222.954 59.3633 222.754 58.1884L221.88 53.0535C221.801 52.5867 221.954 52.1108 222.291 51.7804L225.992 48.1443Z" fill="#FFD064"/>
<path d="M244.375 180H187.684C185.893 180 184.441 178.536 184.441 176.731V149.714C184.441 147.908 185.893 146.445 187.684 146.445H244.375C246.166 146.445 247.618 147.908 247.618 149.714V176.731C247.618 178.536 246.166 180 244.375 180Z" fill="#407093"/>
<path d="M244.384 146.444H238.242V167.289C238.242 169.089 236.794 170.549 235.008 170.549H184.441V176.74C184.441 178.54 185.889 180 187.675 180H244.384C246.17 180 247.618 178.54 247.618 176.74V149.704C247.618 147.904 246.17 146.444 244.384 146.444Z" fill="#365E7D"/>
<circle cx="1" cy="1" r="1" transform="matrix(-1 0 0 1 322 47)" fill="#ECBE6B" fill-opacity="0.24"/>
<circle cx="1" cy="1" r="1" transform="matrix(-1 0 0 1 322 40)" fill="#ECBE6B" fill-opacity="0.16"/>
<circle cx="1" cy="1" r="1" transform="matrix(-1 0 0 1 322 54)" fill="#ECBE6B"/>
<circle cx="1" cy="1" r="1" transform="matrix(-1 0 0 1 322 65)" fill="#ECBE6B" fill-opacity="0.64"/>
<circle cx="1" cy="1" r="1" transform="matrix(-1 0 0 1 322 72)" fill="#ECBE6B" fill-opacity="0.24"/>
<circle cx="1" cy="1" r="1" transform="matrix(-1 0 0 1 315 47)" fill="#ECBE6B"/>
<circle cx="1" cy="1" r="1" transform="matrix(-1 0 0 1 315 54)" fill="#ECBE6B"/>
<circle cx="1" cy="1" r="1" transform="matrix(-1 0 0 1 315 65)" fill="#ECBE6B" fill-opacity="0.24"/>
<circle cx="1" cy="1" r="1" transform="matrix(-1 0 0 1 308 54)" fill="#ECBE6B" fill-opacity="0.64"/>
<circle cx="1" cy="1" r="1" transform="matrix(-1 0 0 1 308 65)" fill="#ECBE6B" fill-opacity="0.16"/>
<circle cx="1" cy="1" r="1" transform="matrix(-1 0 0 1 315 72)" fill="#ECBE6B"/>
<circle cx="1" cy="1" r="1" transform="matrix(-1 0 0 1 322 79)" fill="#ECBE6B"/>
<circle cx="111" cy="48" r="1" fill="#ECBE6B" fill-opacity="0.24"/>
<circle cx="111" cy="41" r="1" fill="#ECBE6B" fill-opacity="0.16"/>
<circle cx="111" cy="55" r="1" fill="#ECBE6B"/>
<circle cx="111" cy="66" r="1" fill="#ECBE6B" fill-opacity="0.64"/>
<circle cx="111" cy="73" r="1" fill="#ECBE6B" fill-opacity="0.24"/>
<circle cx="118" cy="48" r="1" fill="#ECBE6B"/>
<circle cx="118" cy="55" r="1" fill="#ECBE6B"/>
<circle cx="118" cy="66" r="1" fill="#ECBE6B" fill-opacity="0.24"/>
<circle cx="125" cy="55" r="1" fill="#ECBE6B" fill-opacity="0.64"/>
<circle cx="125" cy="66" r="1" fill="#ECBE6B" fill-opacity="0.16"/>
<circle cx="118" cy="73" r="1" fill="#ECBE6B"/>
<circle cx="111" cy="80" r="1" fill="#ECBE6B"/>
<g opacity="0.9">
<path d="M374.77 34.49L362.227 68.3948L346.687 68.3762L333.258 60.6384L339.353 25L374.77 34.49Z" fill="#264DE4"/>
<path d="M360.058 65.4406L370.776 36.4675L356.299 32.5884L347.501 65.4257L360.058 65.4406Z" fill="#2965F1"/>
<path d="M342.524 42.7207L341.779 47.0921L351.701 49.7508L352.843 45.4858L342.524 42.7207Z" fill="#EBEBEB"/>
<path d="M355.157 36.8533L355.141 36.8492L344.038 33.8743L343.299 38.2473L354.014 41.1184L355.157 36.8533Z" fill="#EBEBEB"/>
<path d="M348.687 60.9997L349.876 56.5623L349.855 56.5621L345.26 53.9564L345.856 50.4703L341.405 49.2777L340.232 56.1407L348.665 60.9997L348.687 60.9997Z" fill="#EBEBEB"/>
<path d="M357.145 51.2095L355.148 56.603L349.859 56.5618L348.67 60.999L358.409 61.0114L362.72 49.3596L363.135 48.2433L366.248 39.8253L355.141 36.8492L353.998 41.1143L360.246 42.7884L358.672 47.0476L352.828 45.4817L351.685 49.7466L357.145 51.2095Z" fill="white"/>
</g>
<g opacity="0.6">
<path d="M95.1481 91L71 97.4705L77.4705 121.619L101.619 115.148L95.1481 91Z" fill="#F7DF1E"/>
<path d="M92.2765 111.99C92.9757 112.654 93.765 113.068 94.8842 112.768C95.8245 112.516 96.2992 111.885 96.1252 111.236C95.9167 110.458 95.2257 110.347 94.0695 110.172L93.437 110.081C91.6126 109.822 90.2906 109.239 89.7956 107.392C89.3396 105.69 90.2892 104.047 92.3157 103.504C93.7584 103.117 94.9302 103.342 96.0299 104.456L94.5669 106.064C93.9909 105.471 93.4976 105.308 92.846 105.483C92.1813 105.661 91.873 106.196 92.0206 106.746C92.203 107.427 92.6985 107.59 93.7851 107.751L94.4175 107.842C96.567 108.152 97.8815 108.703 98.3892 110.598C98.9367 112.641 97.6317 114.19 95.4764 114.768C93.369 115.332 91.7384 114.693 90.7195 113.555L92.2765 111.99ZM84.3132 114.334C84.8391 114.871 85.3066 115.319 86.0863 115.11C86.8318 114.91 87.224 114.493 86.9201 113.358L84.8526 105.643L87.1217 105.035L89.1974 112.781C89.827 115.131 88.736 116.569 86.7252 117.108C84.9083 117.595 83.6042 116.937 82.7657 115.948L84.3132 114.334Z" fill="black"/>
</g>
<g opacity="0.8">
<path d="M78.9621 47.9428L68 18.2942L98.9544 9.99999L104.281 41.1411L92.4998 47.9223" fill="#E44D26"/>
<path d="M91.8325 45.3302L84.1457 16.6427L96.7988 13.2523L101.334 39.8371" fill="#F16529"/>
<path d="M75.4156 22.967L85.1421 20.3608L86.1406 24.0873L80.663 25.555L82.0441 29.2758L87.1633 27.9041L88.1597 31.6224L79.4911 33.9451L75.4156 22.967ZM80.1632 35.7709L84.0538 34.7284L85.1252 37.6348L89.7586 37.5897L90.8011 41.4804L82.2774 41.477" fill="#EBEBEB"/>
<path d="M94.8344 17.7637L85.1249 20.3654L86.1234 24.0919L95.4745 21.5863L94.8344 17.7637ZM96.1474 25.4968L87.1461 27.9087L88.1446 31.6352L92.9226 30.355L93.768 35.3189L89.7414 37.5943L90.7795 41.4686L98.1469 37.2248" fill="white"/>
</g>
<g opacity="0.6">
<path d="M345.458 109.212C339.327 107.569 338.994 110.344 338.994 110.344L338.259 113.115L344.109 114.682L343.886 115.513L335.713 113.323C335.713 113.323 331.91 111.825 330.244 118.043C328.578 124.261 332.061 124.958 332.061 124.958L334.104 125.505L334.877 122.62C334.877 122.62 335.689 119.148 339.169 120.081L344.971 121.635C344.971 121.635 348.217 122.562 349.079 119.342L350.506 114.018C350.506 114.018 351.864 110.929 345.458 109.212ZM341.733 110.209C341.871 110.246 342.001 110.31 342.115 110.398C342.228 110.485 342.323 110.594 342.395 110.719C342.466 110.843 342.512 110.98 342.531 111.123C342.549 111.266 342.539 111.41 342.502 111.549C342.465 111.688 342.401 111.819 342.314 111.933C342.226 112.047 342.118 112.143 341.994 112.215C341.87 112.287 341.733 112.334 341.591 112.353C341.449 112.372 341.304 112.362 341.166 112.325C341.028 112.288 340.898 112.224 340.785 112.137C340.671 112.05 340.576 111.941 340.505 111.816C340.433 111.692 340.387 111.554 340.369 111.412C340.35 111.269 340.36 111.124 340.397 110.985C340.434 110.846 340.498 110.716 340.586 110.602C340.673 110.488 340.782 110.392 340.906 110.32C341.03 110.247 341.167 110.201 341.309 110.182C341.451 110.163 341.595 110.172 341.733 110.209Z" fill="url(#paint0_linear_1130_7587)"/>
<path d="M339.161 133.407C345.292 135.049 345.625 132.274 345.625 132.274L346.36 129.504L340.51 127.936L340.733 127.105L348.906 129.295C348.906 129.295 352.709 130.794 354.375 124.576C356.041 118.358 352.558 117.661 352.558 117.661L350.515 117.113L349.742 119.999C349.742 119.999 348.93 123.47 345.45 122.538L339.648 120.983C339.648 120.983 336.403 120.057 335.54 123.277L334.113 128.601C334.113 128.601 332.755 131.69 339.161 133.407ZM342.886 132.409C342.748 132.372 342.618 132.308 342.505 132.221C342.391 132.134 342.296 132.025 342.224 131.9C342.153 131.776 342.107 131.638 342.088 131.496C342.07 131.353 342.08 131.208 342.117 131.069C342.154 130.93 342.218 130.8 342.305 130.686C342.393 130.572 342.501 130.476 342.625 130.404C342.75 130.331 342.886 130.285 343.028 130.266C343.17 130.247 343.315 130.256 343.453 130.293C343.591 130.33 343.721 130.394 343.834 130.482C343.948 130.569 344.043 130.678 344.114 130.802C344.186 130.927 344.232 131.064 344.251 131.207C344.269 131.35 344.259 131.494 344.222 131.633C344.185 131.772 344.121 131.903 344.033 132.017C343.946 132.131 343.837 132.227 343.713 132.299C343.589 132.371 343.452 132.418 343.31 132.437C343.168 132.456 343.024 132.447 342.886 132.409Z" fill="url(#paint1_linear_1130_7587)"/>
</g>
<defs>
<filter id="filter0_f_1130_7587" x="213" y="13" width="219" height="160" filterUnits="userSpaceOnUse" color-interpolation-filters="sRGB">
<feFlood flood-opacity="0" result="BackgroundImageFix"/>
<feBlend mode="normal" in="SourceGraphic" in2="BackgroundImageFix" result="shape"/>
<feGaussianBlur stdDeviation="24" result="effect1_foregroundBlur_1130_7587"/>
</filter>
<filter id="filter1_f_1130_7587" x="0" y="13" width="219" height="160" filterUnits="userSpaceOnUse" color-interpolation-filters="sRGB">
<feFlood flood-opacity="0" result="BackgroundImageFix"/>
<feBlend mode="normal" in="SourceGraphic" in2="BackgroundImageFix" result="shape"/>
<feGaussianBlur stdDeviation="24" result="effect1_foregroundBlur_1130_7587"/>
</filter>
<linearGradient id="paint0_linear_1130_7587" x1="335.821" y1="109.746" x2="347.642" y2="130.037" gradientUnits="userSpaceOnUse">
<stop stop-color="#387EB8"/>
<stop offset="1" stop-color="#366994"/>
</linearGradient>
<linearGradient id="paint1_linear_1130_7587" x1="340.506" y1="118.41" x2="350.166" y2="134.015" gradientUnits="userSpaceOnUse">
<stop stop-color="#FFE052"/>
<stop offset="1" stop-color="#FFC331"/>
</linearGradient>
</defs>
</svg>
